<svg xmlns="http://www.w3.org/2000/svg" xmlns:xlink="http://www.w3.org/1999/xlink"><symbol id="icon-insta" viewBox="0 0 16 15">
  <path d="M8.30193 4.89548C6.95325 4.89548 5.85262 5.9961 5.85262 7.34478C5.85262 8.69346 6.95325 9.79408 8.30193 9.79408C9.6506 9.79408 10.7512 8.69346 10.7512 7.34478C10.7512 5.9961 9.6506 4.89548 8.30193 4.89548ZM15.648 7.34478C15.648 6.33051 15.6572 5.32544 15.6002 4.31301C15.5433 3.13705 15.275 2.09339 14.4151 1.23347C13.5533 0.371709 12.5115 0.10528 11.3355 0.0483199C10.3213 -0.00864067 9.31619 0.000546535 8.30376 0.000546535C7.2895 0.000546535 6.28442 -0.00864067 5.27199 0.0483199C4.09603 0.10528 3.05237 0.373546 2.19245 1.23347C1.33069 2.09522 1.06426 3.13705 1.0073 4.31301C0.950344 5.32727 0.959531 6.33235 0.959531 7.34478C0.959531 8.35721 0.950344 9.36412 1.0073 10.3765C1.06426 11.5525 1.33253 12.5962 2.19245 13.4561C3.05421 14.3178 4.09603 14.5843 5.27199 14.6412C6.28626 14.6982 7.29134 14.689 8.30376 14.689C9.31803 14.689 10.3231 14.6982 11.3355 14.6412C12.5115 14.5843 13.5552 14.316 14.4151 13.4561C15.2768 12.5943 15.5433 11.5525 15.6002 10.3765C15.659 9.36412 15.648 8.35904 15.648 7.34478ZM8.30193 11.1134C6.21644 11.1134 4.53334 9.43027 4.53334 7.34478C4.53334 5.25929 6.21644 3.5762 8.30193 3.5762C10.3874 3.5762 12.0705 5.25929 12.0705 7.34478C12.0705 9.43027 10.3874 11.1134 8.30193 11.1134ZM12.2249 4.30198C11.7379 4.30198 11.3447 3.90877 11.3447 3.42185C11.3447 2.93493 11.7379 2.54172 12.2249 2.54172C12.7118 2.54172 13.105 2.93493 13.105 3.42185C13.1051 3.53747 13.0825 3.65199 13.0383 3.75884C12.9941 3.86568 12.9293 3.96277 12.8475 4.04452C12.7658 4.12628 12.6687 4.1911 12.5618 4.23528C12.455 4.27946 12.3405 4.30213 12.2249 4.30198Z" fill="white"/>
</symbol><symbol id="icon-telegram" viewBox="0 0 16 14">
  <path d="M15.9544 1.27421L13.5399 13.1549C13.3576 13.9933 12.8826 14.202 12.2077 13.8072L8.52847 10.9785L6.75342 12.7602C6.55683 12.9653 6.39281 13.1364 6.01392 13.1364L6.27852 9.22728L13.097 2.79888C13.3936 2.5234 13.0324 2.37016 12.6363 2.64623L4.20687 8.18441L0.577911 6.99902C-0.211315 6.74202 -0.225603 6.17556 0.7425 5.78024L14.9366 0.0745113C15.5938 -0.182482 16.1687 0.226561 15.9544 1.27421Z" fill="white"/>
</symbol><symbol id="icon-vk" viewBox="0 0 20 11">
  <path d="M19.0765 0.822071C19.229 1.24644 18.7317 2.22115 17.5846 3.74621C17.4255 3.95839 17.21 4.2402 16.9381 4.59163C16.6729 4.92979 16.4906 5.1685 16.3911 5.30774C16.2916 5.44699 16.1905 5.6111 16.0877 5.80007C15.985 5.98905 15.9452 6.12829 15.9684 6.21781C15.9916 6.30732 16.0347 6.4217 16.0977 6.56095C16.1607 6.70019 16.2684 6.84275 16.4209 6.98863C16.5734 7.1345 16.7624 7.31022 16.9879 7.51577C17.0144 7.52903 17.031 7.54229 17.0376 7.55555C17.9725 8.42417 18.6058 9.15687 18.9373 9.75363C18.9572 9.78678 18.9787 9.82823 19.0019 9.87796C19.0251 9.92769 19.0484 10.0155 19.0716 10.1415C19.0948 10.2675 19.0931 10.3802 19.0666 10.4797C19.0401 10.5792 18.9572 10.6703 18.8179 10.7532C18.6787 10.8361 18.4831 10.8775 18.2311 10.8775L15.6849 10.9173C15.5258 10.9505 15.3401 10.9339 15.128 10.8676C14.9158 10.8013 14.7434 10.7283 14.6108 10.6488L14.4118 10.5294C14.2129 10.3902 13.9808 10.178 13.7156 9.89288C13.4504 9.60775 13.2233 9.35081 13.0343 9.12206C12.8453 8.8933 12.6431 8.70101 12.4276 8.54519C12.2121 8.38936 12.0248 8.33798 11.8656 8.39102C11.8458 8.39765 11.8192 8.40926 11.7861 8.42583C11.7529 8.44241 11.6966 8.49048 11.617 8.57005C11.5374 8.64962 11.4661 8.74742 11.4032 8.86346C11.3402 8.9795 11.2838 9.15189 11.2341 9.38065C11.1843 9.60941 11.1628 9.86635 11.1694 10.1515C11.1694 10.2509 11.1578 10.3421 11.1346 10.425C11.1114 10.5079 11.0865 10.5692 11.06 10.609L11.0202 10.6587C10.9009 10.7847 10.7252 10.8576 10.4931 10.8775H9.34929C8.87851 10.9041 8.39447 10.8494 7.89717 10.7134C7.39987 10.5775 6.9639 10.4018 6.58926 10.1863C6.21463 9.97079 5.87315 9.75197 5.56482 9.52984C5.25649 9.30772 5.02276 9.11708 4.86362 8.95795L4.61497 8.71924C4.54866 8.65293 4.45749 8.55347 4.34145 8.42086C4.22542 8.28825 3.98837 7.98655 3.63031 7.51577C3.27225 7.04499 2.92083 6.54437 2.57603 6.01391C2.23123 5.48346 1.8251 4.78392 1.35764 3.9153C0.890172 3.04667 0.457519 2.1449 0.0596763 1.20997C0.0198921 1.10388 0 1.01436 0 0.941424C0 0.868486 0.00994606 0.815441 0.0298382 0.782287L0.0696224 0.722611C0.169083 0.596628 0.358058 0.533636 0.636548 0.533636L3.36177 0.513744C3.44134 0.527005 3.51759 0.548555 3.59053 0.578393C3.66346 0.608231 3.71651 0.636412 3.74966 0.662935L3.79939 0.692773C3.90548 0.76571 3.98505 0.871802 4.0381 1.01105C4.17071 1.34258 4.32322 1.68572 4.49562 2.04046C4.66802 2.39521 4.80395 2.66541 4.90341 2.85107L5.06254 3.1395C5.25483 3.53734 5.44049 3.88214 5.61952 4.17389C5.79855 4.46564 5.95935 4.69275 6.10191 4.8552C6.24447 5.01765 6.38205 5.14529 6.51467 5.23812C6.64728 5.33095 6.76 5.37737 6.85283 5.37737C6.94566 5.37737 7.03518 5.36079 7.12138 5.32764C7.13464 5.321 7.15121 5.30443 7.17111 5.2779C7.191 5.25138 7.23078 5.17844 7.29046 5.05909C7.35014 4.93974 7.39489 4.78392 7.42473 4.59163C7.45457 4.39934 7.48607 4.13079 7.51922 3.786C7.55237 3.4412 7.55237 3.02678 7.51922 2.54274C7.50596 2.27751 7.47612 2.03549 7.4297 1.81668C7.38329 1.59786 7.33687 1.44536 7.29046 1.35916L7.23078 1.23981C7.06502 1.01436 6.78321 0.871802 6.38537 0.812125C6.29917 0.798864 6.31575 0.719296 6.4351 0.57342C6.54119 0.447437 6.66717 0.347976 6.81305 0.275038C7.16448 0.10264 7.95685 0.0230716 9.19016 0.036333C9.73387 0.0429637 10.1814 0.0860633 10.5329 0.165632C10.6655 0.198785 10.7766 0.243542 10.8661 0.299903C10.9556 0.356264 11.0235 0.435833 11.07 0.538609C11.1164 0.641385 11.1512 0.747476 11.1744 0.856883C11.1976 0.966289 11.2092 1.11714 11.2092 1.30943C11.2092 1.50172 11.2059 1.68406 11.1993 1.85646C11.1926 2.02886 11.1843 2.26259 11.1744 2.55766C11.1644 2.85272 11.1595 3.12624 11.1595 3.37821C11.1595 3.45115 11.1562 3.59039 11.1495 3.79594C11.1429 4.00149 11.1412 4.16063 11.1446 4.27335C11.1479 4.38608 11.1595 4.52035 11.1794 4.67617C11.1993 4.83199 11.2374 4.96129 11.2937 5.06406C11.3501 5.16684 11.4247 5.24807 11.5175 5.30774C11.5706 5.321 11.6269 5.33427 11.6866 5.34753C11.7463 5.36079 11.8325 5.32432 11.9452 5.23812C12.0579 5.15192 12.1839 5.03754 12.3232 4.89498C12.4624 4.75242 12.6348 4.53029 12.8404 4.2286C13.0459 3.9269 13.2714 3.5705 13.5167 3.15939C13.9145 2.4698 14.2693 1.72385 14.5809 0.921532C14.6074 0.855225 14.6406 0.797206 14.6804 0.747476C14.7202 0.697746 14.7566 0.662935 14.7898 0.643042L14.8296 0.613204L14.8793 0.588339L15.0086 0.558501L15.2075 0.553528L18.072 0.533636C18.3306 0.500482 18.5428 0.508771 18.7085 0.558501C18.8743 0.608231 18.9771 0.662935 19.0169 0.722611L19.0765 0.822071Z" fill="white"/>
</symbol></svg>