<svg width="16" height="15" viewBox="0 0 16 15" fill="#FFFFFF" xmlns="http://www.w3.org/2000/svg">
  <path d="M8.30193 4.89548C6.95325 4.89548 5.85262 5.9961 5.85262 7.34478C5.85262 8.69346 6.95325 9.79408 8.30193 9.79408C9.6506 9.79408 10.7512 8.69346 10.7512 7.34478C10.7512 5.9961 9.6506 4.89548 8.30193 4.89548ZM15.648 7.34478C15.648 6.33051 15.6572 5.32544 15.6002 4.31301C15.5433 3.13705 15.275 2.09339 14.4151 1.23347C13.5533 0.371709 12.5115 0.10528 11.3355 0.0483199C10.3213 -0.00864067 9.31619 0.000546535 8.30376 0.000546535C7.2895 0.000546535 6.28442 -0.00864067 5.27199 0.0483199C4.09603 0.10528 3.05237 0.373546 2.19245 1.23347C1.33069 2.09522 1.06426 3.13705 1.0073 4.31301C0.950344 5.32727 0.959531 6.33235 0.959531 7.34478C0.959531 8.35721 0.950344 9.36412 1.0073 10.3765C1.06426 11.5525 1.33253 12.5962 2.19245 13.4561C3.05421 14.3178 4.09603 14.5843 5.27199 14.6412C6.28626 14.6982 7.29134 14.689 8.30376 14.689C9.31803 14.689 10.3231 14.6982 11.3355 14.6412C12.5115 14.5843 13.5552 14.316 14.4151 13.4561C15.2768 12.5943 15.5433 11.5525 15.6002 10.3765C15.659 9.36412 15.648 8.35904 15.648 7.34478ZM8.30193 11.1134C6.21644 11.1134 4.53334 9.43027 4.53334 7.34478C4.53334 5.25929 6.21644 3.5762 8.30193 3.5762C10.3874 3.5762 12.0705 5.25929 12.0705 7.34478C12.0705 9.43027 10.3874 11.1134 8.30193 11.1134ZM12.2249 4.30198C11.7379 4.30198 11.3447 3.90877 11.3447 3.42185C11.3447 2.93493 11.7379 2.54172 12.2249 2.54172C12.7118 2.54172 13.105 2.93493 13.105 3.42185C13.1051 3.53747 13.0825 3.65199 13.0383 3.75884C12.9941 3.86568 12.9293 3.96277 12.8475 4.04452C12.7658 4.12628 12.6687 4.1911 12.5618 4.23528C12.455 4.27946 12.3405 4.30213 12.2249 4.30198Z" fill="white"/>
</svg>
