<svg width="152" height="31" viewBox="0 0 152 31" fill="#FFFFFF" xmlns="http://www.w3.org/2000/svg">
<path d="M88.4921 9.06452C88.0673 9.06452 87.656 9 87.2581 8.87096C86.8656 8.73654 86.5565 8.56449 86.3307 8.3548L86.6291 7.72572C86.8441 7.91928 87.1184 8.0779 87.4517 8.20156C87.7904 8.31985 88.1372 8.37899 88.4921 8.37899C88.9599 8.37899 89.3094 8.30103 89.5406 8.14511C89.7718 7.9838 89.8873 7.77143 89.8873 7.50797C89.8873 7.31441 89.8228 7.15848 89.6938 7.0402C89.5701 6.91653 89.4142 6.82244 89.226 6.75792C89.0432 6.6934 88.7824 6.62081 88.4437 6.54016C88.0189 6.43801 87.6748 6.33585 87.4114 6.23369C87.1533 6.13153 86.9302 5.97561 86.742 5.76592C86.5592 5.55085 86.4678 5.2632 86.4678 4.90296C86.4678 4.60186 86.5457 4.33034 86.7017 4.08839C86.863 3.84644 87.1049 3.65288 87.4275 3.50771C87.7501 3.36254 88.1507 3.28995 88.6292 3.28995C88.9626 3.28995 89.2905 3.33296 89.6131 3.41899C89.9357 3.50502 90.2126 3.62868 90.4438 3.78998L90.1777 4.43519C89.9411 4.28464 89.6884 4.17173 89.4196 4.09645C89.1507 4.0158 88.8873 3.97548 88.6292 3.97548C88.1722 3.97548 87.8281 4.05882 87.5969 4.2255C87.3711 4.39217 87.2581 4.60724 87.2581 4.8707C87.2581 5.06426 87.3227 5.22287 87.4517 5.34654C87.5807 5.46482 87.7394 5.55892 87.9275 5.62881C88.1211 5.69333 88.3819 5.76323 88.7099 5.8385C89.1346 5.94066 89.476 6.04282 89.7341 6.14498C89.9922 6.24713 90.2126 6.40306 90.3954 6.61275C90.5836 6.82244 90.6777 7.10472 90.6777 7.45958C90.6777 7.7553 90.5971 8.02682 90.4358 8.27415C90.2745 8.5161 90.0298 8.70966 89.7019 8.85483C89.3739 8.99462 88.9706 9.06452 88.4921 9.06452ZM93.9771 9.04839C93.5523 9.04839 93.1706 8.9543 92.8318 8.76611C92.4931 8.57793 92.227 8.31985 92.0334 7.99187C91.8452 7.65851 91.7511 7.28215 91.7511 6.86276C91.7511 6.44338 91.8452 6.0697 92.0334 5.74172C92.227 5.40837 92.4931 5.15029 92.8318 4.96748C93.1706 4.7793 93.5523 4.6852 93.9771 4.6852C94.4018 4.6852 94.7809 4.7793 95.1143 4.96748C95.453 5.15029 95.7164 5.40837 95.9046 5.74172C96.0982 6.0697 96.195 6.44338 96.195 6.86276C96.195 7.28215 96.0982 7.65851 95.9046 7.99187C95.7164 8.31985 95.453 8.57793 95.1143 8.76611C94.7809 8.9543 94.4018 9.04839 93.9771 9.04839ZM93.9771 8.37093C94.2513 8.37093 94.4959 8.30909 94.711 8.18543C94.9314 8.05639 95.1035 7.87896 95.2272 7.65314C95.3508 7.42194 95.4127 7.15848 95.4127 6.86276C95.4127 6.56705 95.3508 6.30628 95.2272 6.08046C95.1035 5.84926 94.9314 5.67183 94.711 5.54816C94.4959 5.4245 94.2513 5.36267 93.9771 5.36267C93.7029 5.36267 93.4555 5.4245 93.2351 5.54816C93.02 5.67183 92.848 5.84926 92.7189 6.08046C92.5953 6.30628 92.5334 6.56705 92.5334 6.86276C92.5334 7.15848 92.5953 7.42194 92.7189 7.65314C92.848 7.87896 93.02 8.05639 93.2351 8.18543C93.4555 8.30909 93.7029 8.37093 93.9771 8.37093ZM97.669 3.01574H98.4432V9H97.669V3.01574ZM104.309 4.72553V9H103.575V8.3548C103.419 8.57524 103.212 8.7473 102.954 8.87096C102.701 8.98925 102.424 9.04839 102.123 9.04839C101.553 9.04839 101.104 8.89247 100.776 8.58062C100.448 8.26339 100.284 7.79831 100.284 7.18537V4.72553H101.059V7.09665C101.059 7.51066 101.158 7.82519 101.357 8.04026C101.556 8.24995 101.841 8.3548 102.212 8.3548C102.621 8.3548 102.943 8.23113 103.18 7.9838C103.416 7.73648 103.535 7.38699 103.535 6.93535V4.72553H104.309ZM108.589 8.74998C108.477 8.84676 108.337 8.92204 108.17 8.9758C108.003 9.0242 107.831 9.04839 107.654 9.04839C107.224 9.04839 106.89 8.93279 106.654 8.70159C106.417 8.4704 106.299 8.13973 106.299 7.70959V5.36267H105.573V4.72553H106.299V3.78998H107.073V4.72553H108.299V5.36267H107.073V7.67733C107.073 7.90853 107.13 8.08596 107.243 8.20963C107.361 8.33329 107.528 8.39512 107.743 8.39512C107.979 8.39512 108.181 8.32791 108.348 8.1935L108.589 8.74998ZM109.929 4.72553H110.703V9H109.929V4.72553ZM110.316 3.90289C110.165 3.90289 110.039 3.8545 109.937 3.75772C109.84 3.66094 109.792 3.54266 109.792 3.40286C109.792 3.26307 109.84 3.14478 109.937 3.048C110.039 2.94584 110.165 2.89476 110.316 2.89476C110.466 2.89476 110.59 2.94315 110.687 3.03993C110.789 3.13134 110.84 3.24694 110.84 3.38673C110.84 3.5319 110.789 3.65557 110.687 3.75772C110.59 3.8545 110.466 3.90289 110.316 3.90289ZM114.415 9.04839C113.991 9.04839 113.609 8.9543 113.27 8.76611C112.931 8.57793 112.665 8.31985 112.472 7.99187C112.283 7.65851 112.189 7.28215 112.189 6.86276C112.189 6.44338 112.283 6.0697 112.472 5.74172C112.665 5.40837 112.931 5.15029 113.27 4.96748C113.609 4.7793 113.991 4.6852 114.415 4.6852C114.84 4.6852 115.219 4.7793 115.553 4.96748C115.891 5.15029 116.155 5.40837 116.343 5.74172C116.536 6.0697 116.633 6.44338 116.633 6.86276C116.633 7.28215 116.536 7.65851 116.343 7.99187C116.155 8.31985 115.891 8.57793 115.553 8.76611C115.219 8.9543 114.84 9.04839 114.415 9.04839ZM114.415 8.37093C114.69 8.37093 114.934 8.30909 115.149 8.18543C115.37 8.05639 115.542 7.87896 115.665 7.65314C115.789 7.42194 115.851 7.15848 115.851 6.86276C115.851 6.56705 115.789 6.30628 115.665 6.08046C115.542 5.84926 115.37 5.67183 115.149 5.54816C114.934 5.4245 114.69 5.36267 114.415 5.36267C114.141 5.36267 113.894 5.4245 113.673 5.54816C113.458 5.67183 113.286 5.84926 113.157 6.08046C113.034 6.30628 112.972 6.56705 112.972 6.86276C112.972 7.15848 113.034 7.42194 113.157 7.65314C113.286 7.87896 113.458 8.05639 113.673 8.18543C113.894 8.30909 114.141 8.37093 114.415 8.37093ZM120.39 4.6852C120.933 4.6852 121.363 4.84382 121.68 5.16104C122.003 5.47289 122.164 5.9326 122.164 6.54016V9H121.39V6.62888C121.39 6.21487 121.29 5.90302 121.091 5.69333C120.892 5.48364 120.607 5.3788 120.236 5.3788C119.817 5.3788 119.486 5.50246 119.244 5.74979C119.002 5.99174 118.881 6.34122 118.881 6.79824V9H118.107V4.72553H118.849V5.37073C119.005 5.15029 119.215 4.98092 119.478 4.86263C119.747 4.74435 120.051 4.6852 120.39 4.6852ZM92.081 16.6852C92.6187 16.6852 93.0435 16.8411 93.3553 17.153C93.6725 17.4648 93.8312 17.9272 93.8312 18.5402V21H93.0569V18.6289C93.0569 18.2149 92.9601 17.903 92.7666 17.6933C92.5784 17.4836 92.3069 17.3788 91.952 17.3788C91.5595 17.3788 91.2477 17.5025 91.0165 17.7498C90.7853 17.9917 90.6697 18.3412 90.6697 18.7982V21H89.8954V18.6289C89.8954 18.2149 89.7986 17.903 89.6051 17.6933C89.4169 17.4836 89.1454 17.3788 88.7905 17.3788C88.398 17.3788 88.0862 17.5025 87.855 17.7498C87.6238 17.9917 87.5082 18.3412 87.5082 18.7982V21H86.7339V16.7255H87.4759V17.3627C87.6318 17.1422 87.8361 16.9755 88.0888 16.8626C88.3416 16.7443 88.6292 16.6852 88.9518 16.6852C89.2852 16.6852 89.5809 16.7524 89.839 16.8868C90.097 17.0212 90.296 17.2175 90.4358 17.4756C90.5971 17.2282 90.8202 17.0347 91.1052 16.8949C91.3955 16.7551 91.7208 16.6852 92.081 16.6852ZM97.2156 16.6852C97.807 16.6852 98.2587 16.8304 98.5705 17.1207C98.8877 17.4111 99.0463 17.8439 99.0463 18.4192V21H98.3124V20.4354C98.1834 20.6344 97.9979 20.7876 97.7559 20.8952C97.5194 20.9973 97.2371 21.0484 96.9091 21.0484C96.4306 21.0484 96.0461 20.9328 95.7558 20.7016C95.4708 20.4704 95.3284 20.1666 95.3284 19.7902C95.3284 19.4139 95.4655 19.1128 95.7397 18.887C96.0139 18.6558 96.4494 18.5402 97.0462 18.5402H98.2721V18.3869C98.2721 18.0536 98.1753 17.7982 97.9818 17.6207C97.7882 17.4433 97.5032 17.3546 97.1269 17.3546C96.8742 17.3546 96.6268 17.3976 96.3849 17.4836C96.1429 17.5643 95.9386 17.6745 95.7719 17.8143L95.4493 17.2336C95.6698 17.0562 95.9332 16.9218 96.2397 16.8304C96.5462 16.7336 96.8715 16.6852 97.2156 16.6852ZM97.0381 20.4516C97.3339 20.4516 97.5893 20.3871 97.8043 20.258C98.0194 20.1236 98.1753 19.9354 98.2721 19.6935V19.0967H97.0785C96.4225 19.0967 96.0945 19.3171 96.0945 19.758C96.0945 19.9731 96.1779 20.1424 96.3445 20.2661C96.5112 20.3897 96.7424 20.4516 97.0381 20.4516ZM101.624 17.4433C101.759 17.196 101.958 17.0078 102.221 16.8788C102.485 16.7497 102.805 16.6852 103.181 16.6852V17.4353C103.138 17.4299 103.079 17.4272 103.004 17.4272C102.584 17.4272 102.253 17.5535 102.012 17.8062C101.775 18.0536 101.657 18.4084 101.657 18.8708V21H100.882V16.7255H101.624V17.4433ZM106.2 19.0079L105.313 19.8306V21H104.538V15.0157H105.313V18.8547L107.643 16.7255H108.579L106.781 18.4918L108.756 21H107.805L106.2 19.0079ZM113.593 18.887C113.593 18.9461 113.588 19.0241 113.577 19.1208H110.109C110.158 19.4972 110.322 19.801 110.601 20.0322C110.886 20.258 111.238 20.3709 111.658 20.3709C112.169 20.3709 112.58 20.1989 112.892 19.8548L113.319 20.3548C113.126 20.5806 112.884 20.7527 112.593 20.871C112.308 20.9892 111.989 21.0484 111.634 21.0484C111.182 21.0484 110.781 20.957 110.432 20.7742C110.082 20.586 109.811 20.3252 109.617 19.9919C109.429 19.6585 109.335 19.2821 109.335 18.8628C109.335 18.4488 109.427 18.0751 109.609 17.7417C109.798 17.4084 110.053 17.1503 110.376 16.9675C110.703 16.7793 111.072 16.6852 111.48 16.6852C111.889 16.6852 112.252 16.7793 112.569 16.9675C112.892 17.1503 113.142 17.4084 113.319 17.7417C113.502 18.0751 113.593 18.4568 113.593 18.887ZM111.48 17.3385C111.109 17.3385 110.798 17.4514 110.545 17.6772C110.298 17.903 110.152 18.1987 110.109 18.5644H112.851C112.808 18.2041 112.661 17.9111 112.408 17.6853C112.161 17.4541 111.851 17.3385 111.48 17.3385ZM117.475 20.75C117.362 20.8468 117.223 20.922 117.056 20.9758C116.889 21.0242 116.717 21.0484 116.54 21.0484C116.11 21.0484 115.776 20.9328 115.54 20.7016C115.303 20.4704 115.185 20.1397 115.185 19.7096V17.3627H114.459V16.7255H115.185V15.79H115.959V16.7255H117.185V17.3627H115.959V19.6773C115.959 19.9085 116.015 20.086 116.128 20.2096C116.247 20.3333 116.413 20.3951 116.628 20.3951C116.865 20.3951 117.067 20.3279 117.233 20.1935L117.475 20.75ZM118.815 16.7255H119.589V21H118.815V16.7255ZM119.202 15.9029C119.051 15.9029 118.925 15.8545 118.823 15.7577C118.726 15.6609 118.677 15.5427 118.677 15.4029C118.677 15.2631 118.726 15.1448 118.823 15.048C118.925 14.9458 119.051 14.8948 119.202 14.8948C119.352 14.8948 119.476 14.9432 119.573 15.0399C119.675 15.1313 119.726 15.2469 119.726 15.3867C119.726 15.5319 119.675 15.6556 119.573 15.7577C119.476 15.8545 119.352 15.9029 119.202 15.9029ZM123.753 16.6852C124.296 16.6852 124.726 16.8438 125.043 17.161C125.366 17.4729 125.527 17.9326 125.527 18.5402V21H124.753V18.6289C124.753 18.2149 124.653 17.903 124.454 17.6933C124.255 17.4836 123.97 17.3788 123.599 17.3788C123.18 17.3788 122.849 17.5025 122.607 17.7498C122.366 17.9917 122.245 18.3412 122.245 18.7982V21H121.47V16.7255H122.212V17.3707C122.368 17.1503 122.578 16.9809 122.841 16.8626C123.11 16.7443 123.414 16.6852 123.753 16.6852ZM131.476 16.7255V20.4193C131.476 21.1667 131.29 21.7178 130.919 22.0727C130.548 22.4329 129.994 22.613 129.258 22.613C128.855 22.613 128.47 22.5566 128.105 22.4436C127.739 22.3361 127.443 22.1802 127.217 21.9759L127.588 21.3791C127.787 21.5511 128.032 21.6855 128.322 21.7823C128.618 21.8845 128.922 21.9355 129.234 21.9355C129.734 21.9355 130.102 21.8173 130.339 21.5807C130.581 21.3441 130.701 20.9839 130.701 20.5V20.1612C130.519 20.3817 130.293 20.5484 130.024 20.6613C129.761 20.7688 129.473 20.8226 129.161 20.8226C128.752 20.8226 128.381 20.7365 128.048 20.5645C127.72 20.3871 127.462 20.1424 127.274 19.8306C127.086 19.5133 126.992 19.1531 126.992 18.7499C126.992 18.3466 127.086 17.9891 127.274 17.6772C127.462 17.36 127.72 17.1153 128.048 16.9433C128.381 16.7712 128.752 16.6852 129.161 16.6852C129.484 16.6852 129.782 16.7443 130.056 16.8626C130.336 16.9809 130.564 17.1557 130.742 17.3869V16.7255H131.476ZM129.25 20.1451C129.529 20.1451 129.779 20.086 130 19.9677C130.226 19.8494 130.4 19.6854 130.524 19.4757C130.653 19.2606 130.718 19.0187 130.718 18.7499C130.718 18.3358 130.581 18.0025 130.306 17.7498C130.032 17.4917 129.68 17.3627 129.25 17.3627C128.814 17.3627 128.459 17.4917 128.185 17.7498C127.911 18.0025 127.774 18.3358 127.774 18.7499C127.774 19.0187 127.836 19.2606 127.959 19.4757C128.088 19.6854 128.263 19.8494 128.484 19.9677C128.709 20.086 128.965 20.1451 129.25 20.1451ZM137.589 19.0079L136.702 19.8306V21H135.928V15.0157H136.702V18.8547L139.033 16.7255H139.968L138.17 18.4918L140.146 21H139.194L137.589 19.0079ZM141.245 16.7255H142.02V21H141.245V16.7255ZM141.633 15.9029C141.482 15.9029 141.356 15.8545 141.253 15.7577C141.157 15.6609 141.108 15.5427 141.108 15.4029C141.108 15.2631 141.157 15.1448 141.253 15.048C141.356 14.9458 141.482 14.8948 141.633 14.8948C141.783 14.8948 141.907 14.9432 142.004 15.0399C142.106 15.1313 142.157 15.2469 142.157 15.3867C142.157 15.5319 142.106 15.6556 142.004 15.7577C141.907 15.8545 141.783 15.9029 141.633 15.9029ZM146.305 20.75C146.192 20.8468 146.052 20.922 145.885 20.9758C145.719 21.0242 145.546 21.0484 145.369 21.0484C144.939 21.0484 144.606 20.9328 144.369 20.7016C144.132 20.4704 144.014 20.1397 144.014 19.7096V17.3627H143.288V16.7255H144.014V15.79H144.788V16.7255H146.014V17.3627H144.788V19.6773C144.788 19.9085 144.845 20.086 144.958 20.2096C145.076 20.3333 145.243 20.3951 145.458 20.3951C145.694 20.3951 145.896 20.3279 146.063 20.1935L146.305 20.75Z" fill="white"/>
<path d="M74 2L74 21" stroke="white"/>
<g clip-path="url(#clip0)">
<rect x="7.86292" y="2" width="6.34455" height="6.50408" rx="3.17227" fill="white"/>
<path d="M14.3279 17.9542C14.3279 19.6363 12.9642 21 11.282 21L8.03756 21L8.03756 14.7186C8.03756 13.0364 9.40123 11.6727 11.0834 11.6727L11.282 11.6727C12.9642 11.6727 14.3279 13.0364 14.3279 14.7186L14.3279 17.9542Z" fill="white"/>
<path d="M0 5.04584C0 3.36367 1.36367 2 3.04584 2H6.29032V8.28143C6.29032 9.9636 4.92665 11.3273 3.24448 11.3273H3.04584C1.36367 11.3273 0 9.9636 0 8.28143V5.04584Z" fill="white"/>
<rect x="6.3446" y="21" width="6.34455" height="6.50407" rx="3.17227" transform="rotate(-180 6.3446 21)" fill="white"/>
<rect x="65.0543" y="8.84961" width="6.34455" height="6.50407" rx="3.17227" transform="rotate(-180 65.0543 8.84961)" fill="white"/>
<path d="M21.3173 2.34546L24.5617 2.34546C26.2439 2.34546 27.6076 3.70913 27.6076 5.3913L27.6076 17.9542C27.6076 19.6363 26.2439 21 24.5617 21H24.3631C22.6809 21 21.3173 19.6363 21.3173 17.9542L21.3173 2.34546Z" fill="white"/>
<path d="M29.3549 2.34546L32.5993 2.34546C34.2815 2.34546 35.6452 3.70913 35.6452 5.3913V17.9542C35.6452 19.6363 34.2815 21 32.5993 21H32.4007C30.7185 21 29.3549 19.6363 29.3549 17.9542L29.3549 2.34546Z" fill="white"/>
<path d="M37.3925 2.34546L40.6369 2.34546C42.3191 2.34546 43.6828 3.70913 43.6828 5.3913V17.9542C43.6828 19.6363 42.3191 21 40.6369 21H40.4383C38.7561 21 37.3925 19.6363 37.3925 17.9542V2.34546Z" fill="white"/>
<path d="M50.6721 2.34546L53.9166 2.34546C55.5988 2.34546 56.9624 3.70913 56.9624 5.3913V17.9542C56.9624 19.6363 55.5988 21 53.9166 21H53.718C52.0358 21 50.6721 19.6363 50.6721 17.9542V2.34546Z" fill="white"/>
<path d="M58.7097 11.6726H61.9542C63.6364 11.6726 65 13.0363 65 14.7185V17.954C65 19.6362 63.6364 20.9999 61.9542 20.9999H61.7556C60.0734 20.9999 58.7097 19.6362 58.7097 17.954V11.6726Z" fill="white"/>
</g>
<defs>
<clipPath id="clip0">
<rect y="2" width="65" height="19" fill="white"/>
</clipPath>
</defs>
</svg>
