<svg width="24" height="24" viewBox="0 0 24 24" fill="#ffffff" xmlns="http://www.w3.org/2000/svg">
<g opacity="0.7">
<g clip-path="url(#clip0)">
<path d="M18 14.25C18 13.649 17.761 13.089 17.349 12.676C17.816 12.165 18.054 11.48 17.989 10.767C17.872 9.49597 16.727 8.49997 15.381 8.49997H9.204C9.51 7.57095 9.99998 5.86798 9.99998 4.49998C9.99998 2.33098 8.157 0.5 6.99998 0.5C5.96198 0.5 5.21897 1.085 5.18798 1.109C5.06897 1.20402 4.99997 1.34802 4.99997 1.49998V4.89097L2.11898 11.13L1.99997 11.191V11C1.99997 10.724 1.77595 10.4999 1.49995 10.4999H-3.50002C-4.87898 10.5 -6 11.621 -6 13V21C-6 22.379 -4.87898 23.5 -3.50002 23.5H-0.500016C0.580969 23.5 1.50497 22.81 1.85297 21.847C2.685 22.275 3.80498 22.5 4.5 22.5H13.679C14.768 22.5 15.721 21.766 15.945 20.754C16.06 20.232 15.993 19.707 15.765 19.251C16.503 18.88 17 18.117 17 17.25C17 16.896 16.919 16.557 16.766 16.251C17.504 15.879 18 15.117 18 14.25ZM15.891 15.484C15.698 15.507 15.535 15.638 15.473 15.823C15.412 16.008 15.463 16.211 15.605 16.345C15.859 16.584 16 16.906 16 17.25C16 17.881 15.523 18.411 14.892 18.484C14.6991 18.507 14.536 18.638 14.4741 18.823C14.4131 19.008 14.4641 19.211 14.6061 19.345C14.9351 19.655 15.0671 20.09 14.9681 20.538C14.8451 21.096 14.3031 21.5 13.6791 21.5H4.5C3.68798 21.5 2.32598 21.119 1.854 20.646C1.71098 20.504 1.49498 20.462 1.30898 20.538C1.122 20.615 0.999984 20.798 0.999984 21C0.999984 21.827 0.327 22.5 -0.500016 22.5H-3.50002C-4.32703 22.5 -5.00002 21.827 -5.00002 21V13C-5.00002 12.173 -4.32703 11.5 -3.50002 11.5H0.999984V12C0.999984 12.173 1.08998 12.334 1.23797 12.426C1.38398 12.514 1.56797 12.523 1.72397 12.447L2.72395 11.947C2.82497 11.897 2.90597 11.813 2.95397 11.71L5.95397 5.20995C5.98397 5.14395 5.99995 5.07195 5.99995 4.99995V1.77097C6.20798 1.65598 6.56902 1.49998 6.99998 1.49998C7.548 1.49998 9 2.86198 9 4.49998C9 6.26 8.04202 8.79697 8.03302 8.822C7.97503 8.975 7.995 9.14802 8.088 9.284C8.18198 9.419 8.33602 9.5 8.49998 9.5H15.381C16.215 9.5 16.923 10.097 16.993 10.859C17.046 11.429 16.772 11.971 16.281 12.274C16.128 12.368 16.037 12.538 16.044 12.719C16.051 12.9 16.155 13.062 16.315 13.145C16.738 13.36 17 13.784 17 14.25C17 14.881 16.523 15.411 15.891 15.484Z" fill="white"/>
<path d="M1.50002 11.5C1.22402 11.5 1 11.724 1 12V21C1 21.276 1.22402 21.5 1.50002 21.5C1.77602 21.5 2.00003 21.276 2.00003 21V12C2.00003 11.724 1.77602 11.5 1.50002 11.5Z" fill="white"/>
</g>
</g>
<defs>
<clipPath id="clip0">
<rect x="0.953247" width="22.5965" height="24" fill="white"/>
</clipPath>
</defs>
</svg>
