<svg width="166" height="39" viewBox="0 0 166 39" fill="none" xmlns="http://www.w3.org/2000/svg">
<path d="M1.2319 28.4569C0.469827 28.4569 0.0887926 28.0759 0.0887926 27.3138V1.28622C0.0887926 0.524152 0.469827 0.143118 1.2319 0.143118C1.99397 0.143118 2.375 0.524152 2.375 1.28622V26.1707H15.7845C16.5465 26.1707 16.9276 26.5517 16.9276 27.3138C16.9276 28.0759 16.5465 28.4569 15.7845 28.4569H1.2319ZM49.1553 7.83708C49.6243 8.01295 49.8588 8.3207 49.8588 8.76036C49.8588 8.96553 49.8148 9.15605 49.7269 9.33191L41.0217 27.5776C40.8459 27.9 40.6407 28.1345 40.4062 28.281C40.201 28.3983 39.9372 28.4569 39.6148 28.4569C38.97 28.4569 38.5157 28.1638 38.2519 27.5776L30.0743 9.28795C29.9864 9.11208 29.9424 8.93622 29.9424 8.76036C29.9424 8.3207 30.1915 8.01295 30.6898 7.83708C30.8657 7.74915 31.0562 7.70519 31.2614 7.70519C31.701 7.70519 32.0088 7.93967 32.1846 8.40863L39.6588 25.1155L47.6165 8.40863C47.8217 7.93967 48.1441 7.70519 48.5838 7.70519C48.7596 7.70519 48.9502 7.74915 49.1553 7.83708ZM55.8587 18.9604V20.5871C55.8587 22.6681 56.269 24.119 57.0897 24.9397C57.9397 25.7604 59.4053 26.1707 61.4863 26.1707H65.0915C66.9673 26.1707 68.3156 25.9362 69.1363 25.4673C69.9863 24.969 70.4846 24.1336 70.6311 22.9612C70.7777 22.2285 71.1734 21.8621 71.8182 21.8621C72.2285 21.8621 72.5216 21.9647 72.6975 22.1698C72.9027 22.375 72.9759 22.6681 72.9173 23.0492C72.7121 24.8957 71.9647 26.2586 70.6751 27.1379C69.4147 28.0173 67.5535 28.4569 65.0915 28.4569H61.4863C58.7604 28.4569 56.7527 27.8267 55.463 26.5664C54.2027 25.306 53.5725 23.3129 53.5725 20.5871V15.619C53.5725 12.8638 54.2027 10.856 55.463 9.5957C56.7527 8.30605 58.7604 7.67588 61.4863 7.70519H65.0915C67.8173 7.70519 69.8104 8.35001 71.0708 9.63967C72.3604 10.9 73.0052 12.8931 73.0052 15.619V17.8173C73.0052 18.5793 72.6242 18.9604 71.8621 18.9604H55.8587ZM55.8587 16.6742H70.719V15.619C70.719 13.5086 70.3087 12.0431 69.488 11.2224C68.6673 10.4017 67.2018 9.99139 65.0915 9.99139H61.4863C59.3759 9.96208 57.9104 10.3578 57.0897 11.1785C56.269 11.9992 55.8587 13.4793 55.8587 15.619V16.6742Z" fill="#1B1D1B"/>
<path d="M106.676 8.93621C107.438 8.93621 107.819 9.31724 107.819 10.0793V36.1069C107.819 36.869 107.438 37.25 106.676 37.25C106.266 37.25 105.884 37.0302 105.533 36.5905L87.375 13.2448V36.1069C87.375 36.869 86.994 37.25 86.2319 37.25C85.4698 37.25 85.0888 36.869 85.0888 36.1069V10.0793C85.0888 9.31724 85.4698 8.93621 86.2319 8.93621C86.6716 8.93621 87.0672 9.15604 87.419 9.59569L105.533 32.8974V10.0793C105.533 9.31724 105.914 8.93621 106.676 8.93621ZM162.825 16.5862C163.353 16.7914 163.617 17.1284 163.617 17.5974C163.617 17.6853 163.587 17.8466 163.529 18.081L156.758 36.3267C156.553 36.9422 156.099 37.25 155.395 37.25C155.014 37.25 154.706 37.1767 154.472 37.0302C154.267 36.8836 154.105 36.6491 153.988 36.3267L149.196 20.9828L143.92 36.3267C143.715 36.9422 143.261 37.25 142.557 37.25C142.176 37.25 141.883 37.1767 141.678 37.0302C141.502 36.8836 141.355 36.6491 141.238 36.3267L134.995 18.0371C134.937 17.8026 134.907 17.656 134.907 17.5974C134.907 17.0991 135.186 16.7621 135.743 16.5862C135.977 16.5276 136.138 16.4983 136.226 16.4983C136.666 16.4983 136.974 16.7767 137.149 17.3336L142.733 33.6009L148.009 17.6414C148.243 17.0259 148.683 16.7181 149.328 16.7181C149.973 16.7181 150.383 17.0405 150.559 17.6853L155.527 33.5129L161.374 17.2897C161.55 16.7621 161.873 16.4983 162.342 16.4983C162.547 16.4983 162.708 16.5276 162.825 16.5862Z" fill="#1B1D1B"/>
<path d="M0.396484 34.819H69.2758C70.8946 34.819 72.2068 36.1312 72.2068 37.75H3.32752C1.70875 37.75 0.396484 36.4377 0.396484 34.819Z" fill="#1B1D1B"/>
<path d="M83.931 4.04315H163.069C164.688 4.04315 166 5.35542 166 6.97419H86.8621C85.2433 6.97419 83.931 5.66192 83.931 4.04315Z" fill="#1B1D1B"/>
<rect x="20.9137" y="28.9568" width="16.1207" height="2.93103" rx="1.46552" transform="rotate(-90 20.9137 28.9568)" fill="#1B1D1B"/>
<rect x="21" y="11" width="3" height="3" rx="1.5" transform="rotate(-90 21 11)" fill="#FF0000"/>
<path d="M131.149 28.2217C131.149 33.7578 127.086 38.2189 122.044 38.2189C117.002 38.2189 112.939 33.7578 112.939 28.2217C112.939 22.6856 117.002 18.2244 122.044 18.2244C127.086 18.2244 131.149 22.7393 131.149 28.2217Z" fill="#1B1D1B"/>
<path d="M121.988 21.3004C121.82 21.3004 121.709 21.3004 121.542 21.3004C121.876 21.9772 122.044 22.7154 122.044 23.5152C122.044 26.1606 120.091 28.2523 117.748 28.2523C117.023 28.2523 116.354 28.0678 115.74 27.6986C115.74 27.8832 115.74 28.0063 115.74 28.1908C115.74 32.0052 118.529 35.1427 122.044 35.1427C125.502 35.1427 128.347 32.0667 128.347 28.1908C128.291 24.3765 125.446 21.3004 121.988 21.3004Z" fill="#DFDFDF"/>
<path d="M119.942 23.6075C119.942 24.8741 118.995 25.9145 117.841 25.9145C116.688 25.9145 115.74 24.8741 115.74 23.6075C115.74 22.3409 116.688 21.3004 117.841 21.3004C119.036 21.3004 119.942 22.3409 119.942 23.6075Z" fill="#FF0000"/>
<path d="M121.94 14C114.823 14 109 19.1866 109 25.6251L110.742 25.5803C110.742 20.0361 115.769 15.5202 121.94 15.5202C128.112 15.5202 133.139 20.0361 133.139 25.5803L134.881 25.6251C134.881 19.2313 129.107 14 121.94 14Z" fill="#1B1D1B"/>
</svg>
