<svg width="537" height="275" viewBox="0 0 537 275" fill="none" xmlns="http://www.w3.org/2000/svg">
<path d="M42.8761 19.8115C44.4096 20.5476 45.1764 21.5904 45.1764 22.9398C45.1764 23.4919 45.023 24.1666 44.7163 24.964L27.7867 63.1477C26.9893 65.0492 25.5171 66 23.3703 66C21.4687 66 20.0886 64.9879 19.2299 62.9637L3.58835 24.872C3.28165 24.0746 3.1283 23.4306 3.1283 22.9398C3.1283 21.4677 3.95638 20.4249 5.61254 19.8115C6.34861 19.5048 6.96201 19.3515 7.45272 19.3515C8.86352 19.3515 9.93696 20.1796 10.673 21.8357L23.5543 53.3028L37.7236 21.6517C38.5211 20.1182 39.6252 19.3515 41.036 19.3515C41.5267 19.3515 42.1401 19.5048 42.8761 19.8115ZM61.8638 66C60.637 66 59.6862 65.6626 59.0115 64.9879C58.3367 64.3132 57.9994 63.3624 57.9994 62.1356V23.2159C57.9994 21.9891 58.3367 21.0383 59.0115 20.3636C59.6862 19.6889 60.637 19.3515 61.8638 19.3515C63.0905 19.3515 64.0413 19.6889 64.716 20.3636C65.3908 21.0383 65.7281 21.9891 65.7281 23.2159V62.1356C65.7281 63.3624 65.3908 64.3132 64.716 64.9879C64.0413 65.6626 63.0905 66 61.8638 66ZM60.5756 11.8068C59.1648 11.8068 58.0607 11.4081 57.2633 10.6106C56.5272 9.81324 56.1592 8.73981 56.1592 7.39034V4.63007C56.1592 3.21927 56.5272 2.1765 57.2633 1.50177C58.0607 0.765699 59.1648 0.397663 60.5756 0.397663H63.2439C66.0042 0.397663 67.3843 1.80847 67.3843 4.63007V7.39034C67.3843 8.80114 67.0162 9.90525 66.2802 10.7027C65.6054 11.4387 64.5933 11.8068 63.2439 11.8068H60.5756ZM122.405 1.22574C123.632 1.22574 124.582 1.56311 125.257 2.23784C125.932 2.91257 126.269 3.86333 126.269 5.09012V62.1356C126.269 63.3624 125.932 64.3132 125.257 64.9879C124.582 65.6626 123.632 66 122.405 66C121.178 66 120.227 65.6626 119.553 64.9879C118.878 64.3132 118.541 63.3624 118.541 62.1356V61.4916C117.007 63.025 115.075 64.1598 112.744 64.8959C110.474 65.632 107.622 66 104.187 66H100.691C94.5569 66 90.0177 64.5279 87.0735 61.5836C84.1292 58.6393 82.657 54.1002 82.657 47.9663V37.3852C82.657 31.2513 84.1292 26.7122 87.0735 23.7679C90.0177 20.8236 94.5569 19.3515 100.691 19.3515H118.541V5.09012C118.541 3.86333 118.878 2.91257 119.553 2.23784C120.227 1.56311 121.178 1.22574 122.405 1.22574ZM104.187 58.2713C108.42 58.2713 111.855 57.7499 114.492 56.7071C117.191 55.603 118.541 54.0082 118.541 51.9226V27.0802H100.691C97.9919 27.0802 95.9063 27.3869 94.4342 28.0003C92.962 28.6137 91.9193 29.6565 91.3059 31.1286C90.6925 32.6008 90.3858 34.6863 90.3858 37.3852V47.9663C90.3858 50.6652 90.6925 52.7507 91.3059 54.2229C91.9193 55.695 92.962 56.7378 94.4342 57.3512C95.9063 57.9646 97.9919 58.2713 100.691 58.2713H104.187ZM150.048 45.8501V48.0583C150.048 50.7572 150.354 52.8427 150.968 54.3149C151.581 55.7257 152.624 56.7378 154.096 57.3512C155.568 57.9646 157.654 58.2713 160.353 58.2713H167.898C171.026 58.2713 173.326 57.9952 174.798 57.4432C176.332 56.8298 177.344 55.787 177.834 54.3149C178.203 53.0881 178.693 52.1987 179.307 51.6466C179.92 51.0332 180.809 50.7265 181.975 50.7265C183.14 50.7265 184.03 51.0026 184.643 51.5546C185.318 52.0453 185.655 52.7814 185.655 53.7628C185.655 54.1922 185.625 54.4989 185.563 54.6829C184.214 62.2276 178.325 66 167.898 66H160.353C154.219 66 149.68 64.5279 146.735 61.5836C143.791 58.6393 142.319 54.1309 142.319 48.0583V37.3852C142.319 31.19 143.791 26.6202 146.735 23.6759C149.68 20.7316 154.219 19.2902 160.353 19.3515H167.898C174.031 19.3515 178.571 20.8236 181.515 23.7679C184.459 26.7122 185.931 31.2513 185.931 37.3852V41.9857C185.931 43.2125 185.594 44.1632 184.919 44.838C184.244 45.5127 183.294 45.8501 182.067 45.8501H150.048ZM150.048 38.1213H178.203V37.3852C178.203 34.6863 177.896 32.6008 177.282 31.1286C176.669 29.6565 175.626 28.6137 174.154 28.0003C172.682 27.3869 170.596 27.0802 167.898 27.0802H160.353C157.654 27.0189 155.568 27.2949 154.096 27.9083C152.624 28.5217 151.581 29.5645 150.968 31.0366C150.354 32.5088 150.048 34.625 150.048 37.3852V38.1213ZM218.667 66C212.533 66 207.994 64.5279 205.05 61.5836C202.105 58.6393 200.633 54.1309 200.633 48.0583V37.3852C200.633 31.2513 202.105 26.7122 205.05 23.7679C207.994 20.8236 212.533 19.3515 218.667 19.3515H226.212C232.346 19.3515 236.885 20.8236 239.829 23.7679C242.773 26.7122 244.245 31.2513 244.245 37.3852V47.9663C244.245 54.1002 242.773 58.6393 239.829 61.5836C236.885 64.5279 232.346 66 226.212 66H218.667ZM226.212 58.2713C228.911 58.2713 230.996 57.9646 232.468 57.3512C233.94 56.7378 234.983 55.695 235.597 54.2229C236.21 52.7507 236.517 50.6652 236.517 47.9663V37.3852C236.517 34.6863 236.21 32.6008 235.597 31.1286C234.983 29.6565 233.94 28.6137 232.468 28.0003C230.996 27.3869 228.911 27.0802 226.212 27.0802H218.667C215.907 27.0802 213.791 27.3869 212.318 28.0003C210.908 28.6137 209.895 29.6565 209.282 31.1286C208.669 32.5394 208.362 34.625 208.362 37.3852V48.0583C208.362 50.7572 208.669 52.8427 209.282 54.3149C209.895 55.7257 210.938 56.7378 212.41 57.3512C213.883 57.9646 215.968 58.2713 218.667 58.2713H226.212Z" fill="#1B1D1B"/>
<path d="M35.1474 123.751C41.2813 123.751 45.8204 125.224 48.7647 128.168C51.709 131.112 53.1811 135.651 53.1811 141.785V152.366C53.1811 158.5 51.709 163.039 48.7647 165.983C45.8204 168.928 41.2813 170.4 35.1474 170.4H17.2977V184.937C17.2977 186.164 16.9603 187.115 16.2856 187.79C15.6108 188.464 14.6601 188.802 13.4333 188.802C12.2065 188.802 11.2558 188.464 10.581 187.79C9.90629 187.115 9.56892 186.164 9.56892 184.937V127.616C9.56892 126.389 9.90629 125.438 10.581 124.763C11.2558 124.089 12.2065 123.751 13.4333 123.751C14.6601 123.751 15.6108 124.089 16.2856 124.763C16.9603 125.438 17.2977 126.389 17.2977 127.616V128.812C20.6713 125.438 25.4558 123.751 31.6511 123.751H35.1474ZM45.4524 141.785C45.4524 139.086 45.1457 137.001 44.5323 135.529C43.9189 134.056 42.8761 133.014 41.404 132.4C39.9319 131.787 37.8463 131.48 35.1474 131.48H31.6511C27.6027 131.48 24.229 131.971 21.5301 132.952C18.8925 133.934 17.4817 135.375 17.2977 137.277V162.671H35.1474C37.8463 162.671 39.9319 162.364 41.404 161.751C42.8761 161.138 43.9189 160.095 44.5323 158.623C45.1457 157.151 45.4524 155.065 45.4524 152.366V141.785ZM94.4198 123.751C95.6466 123.751 96.5973 124.089 97.2721 124.763C97.9468 125.438 98.2842 126.389 98.2842 127.616C98.2842 128.843 97.9468 129.793 97.2721 130.468C96.5973 131.143 95.6466 131.48 94.4198 131.48C89.206 131.48 85.1576 132.462 82.2746 134.424C79.453 136.326 77.9809 138.933 77.8582 142.245V166.536C77.8582 167.762 77.5208 168.713 76.8461 169.388C76.1714 170.063 75.2206 170.4 73.9938 170.4C72.767 170.4 71.8163 170.063 71.1416 169.388C70.4668 168.713 70.1295 167.762 70.1295 166.536V127.616C70.1295 125.04 71.4176 123.751 73.9938 123.751C76.5701 123.751 77.8582 125.04 77.8582 127.616V131.204C81.5999 126.236 87.1204 123.751 94.4198 123.751ZM123.423 170.4C117.29 170.4 112.75 168.928 109.806 165.983C106.862 163.039 105.39 158.531 105.39 152.458V141.785C105.39 135.651 106.862 131.112 109.806 128.168C112.75 125.224 117.29 123.751 123.423 123.751H130.968C137.102 123.751 141.641 125.224 144.585 128.168C147.53 131.112 149.002 135.651 149.002 141.785V152.366C149.002 158.5 147.53 163.039 144.585 165.983C141.641 168.928 137.102 170.4 130.968 170.4H123.423ZM130.968 162.671C133.667 162.671 135.753 162.364 137.225 161.751C138.697 161.138 139.74 160.095 140.353 158.623C140.966 157.151 141.273 155.065 141.273 152.366V141.785C141.273 139.086 140.966 137.001 140.353 135.529C139.74 134.056 138.697 133.014 137.225 132.4C135.753 131.787 133.667 131.48 130.968 131.48H123.423C120.663 131.48 118.547 131.787 117.075 132.4C115.664 133.014 114.652 134.056 114.039 135.529C113.425 136.939 113.118 139.025 113.118 141.785V152.458C113.118 155.157 113.425 157.243 114.039 158.715C114.652 160.126 115.695 161.138 117.167 161.751C118.639 162.364 120.725 162.671 123.423 162.671H130.968ZM203.452 105.626C204.679 105.626 205.629 105.963 206.304 106.638C206.979 107.312 207.316 108.263 207.316 109.49V166.536C207.316 167.762 206.979 168.713 206.304 169.388C205.629 170.063 204.679 170.4 203.452 170.4C202.225 170.4 201.274 170.063 200.599 169.388C199.925 168.713 199.587 167.762 199.587 166.536V165.891C198.054 167.425 196.122 168.56 193.791 169.296C191.521 170.032 188.669 170.4 185.234 170.4H181.738C175.604 170.4 171.065 168.928 168.12 165.983C165.176 163.039 163.704 158.5 163.704 152.366V141.785C163.704 135.651 165.176 131.112 168.12 128.168C171.065 125.224 175.604 123.751 181.738 123.751H199.587V109.49C199.587 108.263 199.925 107.312 200.599 106.638C201.274 105.963 202.225 105.626 203.452 105.626ZM185.234 162.671C189.466 162.671 192.901 162.15 195.539 161.107C198.238 160.003 199.587 158.408 199.587 156.323V131.48H181.738C179.039 131.48 176.953 131.787 175.481 132.4C174.009 133.014 172.966 134.056 172.353 135.529C171.739 137.001 171.433 139.086 171.433 141.785V152.366C171.433 155.065 171.739 157.151 172.353 158.623C172.966 160.095 174.009 161.138 175.481 161.751C176.953 162.364 179.039 162.671 181.738 162.671H185.234ZM263.482 123.751C264.709 123.751 265.659 124.089 266.334 124.763C267.009 125.438 267.346 126.389 267.346 127.616V166.536C267.346 169.112 266.058 170.4 263.482 170.4C260.906 170.4 259.617 169.112 259.617 166.536V164.971C256.366 168.59 251.582 170.4 245.264 170.4H242.688C236.554 170.4 232.015 168.928 229.07 165.983C226.126 163.039 224.654 158.5 224.654 152.366V127.616C224.654 126.389 224.991 125.438 225.666 124.763C226.341 124.089 227.292 123.751 228.518 123.751C229.745 123.751 230.696 124.089 231.371 124.763C232.045 125.438 232.383 126.389 232.383 127.616V152.366C232.383 155.065 232.689 157.151 233.303 158.623C233.916 160.095 234.959 161.138 236.431 161.751C237.903 162.364 239.989 162.671 242.688 162.671H245.264C249.128 162.671 252.379 162.242 255.017 161.383C257.716 160.463 259.249 159.144 259.617 157.427V127.616C259.617 126.389 259.955 125.438 260.63 124.763C261.304 124.089 262.255 123.751 263.482 123.751ZM302.32 170.4C296.186 170.4 291.647 168.928 288.702 165.983C285.758 163.039 284.286 158.5 284.286 152.366V141.693C284.286 135.559 285.758 131.02 288.702 128.076C291.647 125.132 296.186 123.69 302.32 123.751H309.864C318.943 123.751 324.218 126.88 325.69 133.136C325.751 133.382 325.782 133.688 325.782 134.056C325.782 135.038 325.414 135.805 324.678 136.357C324.003 136.909 323.083 137.185 321.918 137.185C320.813 137.185 319.955 136.909 319.341 136.357C318.789 135.805 318.268 134.915 317.777 133.688C317.348 132.891 316.52 132.339 315.293 132.032C314.066 131.664 312.257 131.48 309.864 131.48H302.32C299.621 131.419 297.535 131.695 296.063 132.308C294.591 132.922 293.548 133.964 292.935 135.437C292.321 136.909 292.015 138.994 292.015 141.693V152.366C292.015 155.065 292.321 157.151 292.935 158.623C293.548 160.095 294.591 161.138 296.063 161.751C297.535 162.364 299.621 162.671 302.32 162.671H309.864C312.257 162.671 314.066 162.518 315.293 162.211C316.52 161.843 317.348 161.26 317.777 160.463C318.268 159.175 318.789 158.285 319.341 157.795C319.955 157.243 320.844 156.967 322.01 156.967C323.114 156.967 324.003 157.243 324.678 157.795C325.414 158.347 325.782 159.113 325.782 160.095C325.782 160.463 325.751 160.77 325.69 161.015C324.218 167.272 318.943 170.4 309.864 170.4H302.32ZM360.545 162.671C363.121 162.671 364.409 163.959 364.409 166.536C364.409 167.762 364.072 168.713 363.397 169.388C362.722 170.063 361.772 170.4 360.545 170.4C354.472 170.4 349.994 168.958 347.111 166.075C344.228 163.193 342.787 158.745 342.787 152.734V131.48H338.279C337.052 131.48 336.101 131.143 335.426 130.468C334.752 129.793 334.414 128.843 334.414 127.616C334.414 125.04 335.702 123.751 338.279 123.751H342.787V117.035C342.787 115.808 343.124 114.857 343.799 114.182C344.474 113.508 345.425 113.17 346.651 113.17C347.878 113.17 348.829 113.508 349.504 114.182C350.178 114.857 350.516 115.808 350.516 117.035V123.751H361.097C363.673 123.751 364.961 125.04 364.961 127.616C364.961 128.843 364.624 129.793 363.949 130.468C363.274 131.143 362.324 131.48 361.097 131.48H350.516V152.734C350.516 155.372 350.822 157.396 351.436 158.807C352.049 160.218 353.061 161.23 354.472 161.843C355.883 162.395 357.907 162.671 360.545 162.671ZM383.266 170.4C382.039 170.4 381.088 170.063 380.414 169.388C379.739 168.713 379.402 167.762 379.402 166.536V127.616C379.402 126.389 379.739 125.438 380.414 124.763C381.088 124.089 382.039 123.751 383.266 123.751C384.493 123.751 385.443 124.089 386.118 124.763C386.793 125.438 387.13 126.389 387.13 127.616V166.536C387.13 167.762 386.793 168.713 386.118 169.388C385.443 170.063 384.493 170.4 383.266 170.4ZM381.978 116.207C380.567 116.207 379.463 115.808 378.665 115.011C377.929 114.213 377.561 113.14 377.561 111.79V109.03C377.561 107.619 377.929 106.576 378.665 105.902C379.463 105.166 380.567 104.798 381.978 104.798H384.646C387.406 104.798 388.786 106.208 388.786 109.03V111.79C388.786 113.201 388.418 114.305 387.682 115.103C387.008 115.839 385.995 116.207 384.646 116.207H381.978ZM422.093 170.4C415.959 170.4 411.42 168.928 408.476 165.983C405.531 163.039 404.059 158.531 404.059 152.458V141.785C404.059 135.651 405.531 131.112 408.476 128.168C411.42 125.224 415.959 123.751 422.093 123.751H429.638C435.772 123.751 440.311 125.224 443.255 128.168C446.199 131.112 447.671 135.651 447.671 141.785V152.366C447.671 158.5 446.199 163.039 443.255 165.983C440.311 168.928 435.772 170.4 429.638 170.4H422.093ZM429.638 162.671C432.337 162.671 434.422 162.364 435.894 161.751C437.366 161.138 438.409 160.095 439.023 158.623C439.636 157.151 439.943 155.065 439.943 152.366V141.785C439.943 139.086 439.636 137.001 439.023 135.529C438.409 134.056 437.366 133.014 435.894 132.4C434.422 131.787 432.337 131.48 429.638 131.48H422.093C419.333 131.48 417.216 131.787 415.744 132.4C414.333 133.014 413.321 134.056 412.708 135.529C412.095 136.939 411.788 139.025 411.788 141.785V152.458C411.788 155.157 412.095 157.243 412.708 158.715C413.321 160.126 414.364 161.138 415.836 161.751C417.308 162.364 419.394 162.671 422.093 162.671H429.638ZM489.24 123.751C495.374 123.751 499.913 125.224 502.857 128.168C505.802 131.112 507.274 135.651 507.274 141.785V166.536C507.274 167.762 506.936 168.713 506.262 169.388C505.587 170.063 504.636 170.4 503.409 170.4C502.183 170.4 501.232 170.063 500.557 169.388C499.882 168.713 499.545 167.762 499.545 166.536V141.785C499.545 139.086 499.238 137.001 498.625 135.529C498.011 134.056 496.969 133.014 495.497 132.4C494.024 131.787 491.939 131.48 489.24 131.48H486.664C482.799 131.48 479.518 131.94 476.819 132.86C474.181 133.719 472.678 135.007 472.31 136.725V166.536C472.31 167.762 471.973 168.713 471.298 169.388C470.624 170.063 469.673 170.4 468.446 170.4C467.219 170.4 466.268 170.063 465.594 169.388C464.919 168.713 464.582 167.762 464.582 166.536V127.616C464.582 125.04 465.87 123.751 468.446 123.751C471.022 123.751 472.31 125.04 472.31 127.616V129.18C475.561 125.561 480.346 123.751 486.664 123.751H489.24Z" fill="#1B1D1B"/>
<path d="M20.518 274.8C12.7279 274.8 8.18879 271.58 6.90067 265.139C6.83933 264.955 6.80866 264.679 6.80866 264.311C6.80866 263.268 7.14602 262.471 7.82075 261.919C8.55683 261.305 9.50758 260.999 10.673 260.999C11.8385 260.999 12.7279 261.305 13.3413 261.919C13.9547 262.471 14.4454 263.422 14.8134 264.771C15.1815 265.691 15.7642 266.305 16.5616 266.611C17.4203 266.918 18.7391 267.071 20.518 267.071H35.6074C37.9997 267.071 39.5945 266.673 40.3919 265.875C41.2506 265.078 41.68 263.452 41.68 260.999C41.68 258.545 41.2506 256.92 40.3919 256.122C39.5945 255.325 37.9997 254.926 35.6074 254.926H20.794C11.8998 254.926 7.45272 250.479 7.45272 241.585C7.45272 237.046 8.55683 233.672 10.765 231.464C12.9733 229.256 16.3162 228.152 20.794 228.152H35.1474C42.3854 228.152 46.6485 231.188 47.9366 237.26C47.998 237.444 48.0286 237.72 48.0286 238.089C48.0286 239.07 47.6606 239.867 46.9245 240.481C46.2498 241.033 45.3297 241.309 44.1643 241.309C42.9988 241.309 42.1094 241.033 41.496 240.481C40.944 239.867 40.4839 238.947 40.1159 237.72C39.7478 236.984 39.1958 236.494 38.4597 236.248C37.7236 236.003 36.6195 235.88 35.1474 235.88H20.794C19.1992 235.88 18.0031 236.034 17.2057 236.34C16.4083 236.586 15.8562 237.107 15.5495 237.904C15.3041 238.702 15.1815 239.929 15.1815 241.585C15.1815 243.793 15.5495 245.296 16.2856 246.093C17.0216 246.829 18.5245 247.197 20.794 247.197H35.6074C44.8083 247.197 49.4088 251.798 49.4088 260.999C49.4088 270.2 44.8083 274.8 35.6074 274.8H20.518ZM85.5064 267.071C88.0827 267.071 89.3708 268.359 89.3708 270.936C89.3708 272.162 89.0334 273.113 88.3587 273.788C87.684 274.463 86.7332 274.8 85.5064 274.8C79.4339 274.8 74.9561 273.359 72.0731 270.476C69.1902 267.593 67.7487 263.146 67.7487 257.134V235.88H63.2403C62.0135 235.88 61.0627 235.543 60.388 234.868C59.7133 234.193 59.3759 233.243 59.3759 232.016C59.3759 229.44 60.664 228.152 63.2403 228.152H67.7487V221.435C67.7487 220.208 68.0861 219.257 68.7608 218.583C69.4356 217.908 70.3863 217.571 71.6131 217.571C72.8399 217.571 73.7906 217.908 74.4654 218.583C75.1401 219.257 75.4775 220.208 75.4775 221.435V228.152H86.0585C88.6347 228.152 89.9229 229.44 89.9229 232.016C89.9229 233.243 89.5855 234.193 88.9108 234.868C88.236 235.543 87.2853 235.88 86.0585 235.88H75.4775V257.134C75.4775 259.772 75.7842 261.796 76.3976 263.207C77.011 264.618 78.0231 265.63 79.4339 266.243C80.8447 266.795 82.8689 267.071 85.5064 267.071ZM142.271 228.152C143.498 228.152 144.448 228.489 145.123 229.164C145.798 229.838 146.135 230.789 146.135 232.016V270.936C146.135 273.512 144.847 274.8 142.271 274.8C139.695 274.8 138.407 273.512 138.407 270.936V269.372C135.156 272.991 130.371 274.8 124.053 274.8H121.477C115.343 274.8 110.804 273.328 107.86 270.384C104.915 267.439 103.443 262.9 103.443 256.766V232.016C103.443 230.789 103.781 229.838 104.455 229.164C105.13 228.489 106.081 228.152 107.308 228.152C108.534 228.152 109.485 228.489 110.16 229.164C110.835 229.838 111.172 230.789 111.172 232.016V256.766C111.172 259.465 111.479 261.551 112.092 263.023C112.705 264.495 113.748 265.538 115.22 266.151C116.692 266.765 118.778 267.071 121.477 267.071H124.053C127.918 267.071 131.168 266.642 133.806 265.783C136.505 264.863 138.038 263.544 138.407 261.827V232.016C138.407 230.789 138.744 229.838 139.419 229.164C140.093 228.489 141.044 228.152 142.271 228.152ZM202.823 210.026C204.05 210.026 205 210.363 205.675 211.038C206.35 211.713 206.687 212.663 206.687 213.89V270.936C206.687 272.162 206.35 273.113 205.675 273.788C205 274.463 204.05 274.8 202.823 274.8C201.596 274.8 200.645 274.463 199.971 273.788C199.296 273.113 198.958 272.162 198.958 270.936V270.292C197.425 271.825 195.493 272.96 193.162 273.696C190.892 274.432 188.04 274.8 184.605 274.8H181.109C174.975 274.8 170.436 273.328 167.491 270.384C164.547 267.439 163.075 262.9 163.075 256.766V246.185C163.075 240.051 164.547 235.512 167.491 232.568C170.436 229.624 174.975 228.152 181.109 228.152H198.958V213.89C198.958 212.663 199.296 211.713 199.971 211.038C200.645 210.363 201.596 210.026 202.823 210.026ZM184.605 267.071C188.837 267.071 192.272 266.55 194.91 265.507C197.609 264.403 198.958 262.808 198.958 260.723V235.88H181.109C178.41 235.88 176.324 236.187 174.852 236.8C173.38 237.414 172.337 238.457 171.724 239.929C171.11 241.401 170.804 243.486 170.804 246.185V256.766C170.804 259.465 171.11 261.551 171.724 263.023C172.337 264.495 173.38 265.538 174.852 266.151C176.324 266.765 178.41 267.071 181.109 267.071H184.605ZM228.81 274.8C227.583 274.8 226.632 274.463 225.957 273.788C225.283 273.113 224.945 272.162 224.945 270.936V232.016C224.945 230.789 225.283 229.838 225.957 229.164C226.632 228.489 227.583 228.152 228.81 228.152C230.036 228.152 230.987 228.489 231.662 229.164C232.337 229.838 232.674 230.789 232.674 232.016V270.936C232.674 272.162 232.337 273.113 231.662 273.788C230.987 274.463 230.036 274.8 228.81 274.8ZM227.521 220.607C226.111 220.607 225.007 220.208 224.209 219.411C223.473 218.613 223.105 217.54 223.105 216.19V213.43C223.105 212.019 223.473 210.977 224.209 210.302C225.007 209.566 226.111 209.198 227.521 209.198H230.19C232.95 209.198 234.33 210.609 234.33 213.43V216.19C234.33 217.601 233.962 218.705 233.226 219.503C232.551 220.239 231.539 220.607 230.19 220.607H227.521ZM267.637 274.8C261.503 274.8 256.964 273.328 254.019 270.384C251.075 267.439 249.603 262.931 249.603 256.858V246.185C249.603 240.051 251.075 235.512 254.019 232.568C256.964 229.624 261.503 228.152 267.637 228.152H275.181C281.315 228.152 285.854 229.624 288.799 232.568C291.743 235.512 293.215 240.051 293.215 246.185V256.766C293.215 262.9 291.743 267.439 288.799 270.384C285.854 273.328 281.315 274.8 275.181 274.8H267.637ZM275.181 267.071C277.88 267.071 279.966 266.765 281.438 266.151C282.91 265.538 283.953 264.495 284.566 263.023C285.18 261.551 285.486 259.465 285.486 256.766V246.185C285.486 243.486 285.18 241.401 284.566 239.929C283.953 238.457 282.91 237.414 281.438 236.8C279.966 236.187 277.88 235.88 275.181 235.88H267.637C264.876 235.88 262.76 236.187 261.288 236.8C259.877 237.414 258.865 238.457 258.252 239.929C257.638 241.339 257.332 243.425 257.332 246.185V256.858C257.332 259.557 257.638 261.643 258.252 263.115C258.865 264.526 259.908 265.538 261.38 266.151C262.852 266.765 264.938 267.071 267.637 267.071H275.181Z" fill="#1B1D1B"/>
</svg>
