<svg width="552" height="57" viewBox="0 0 552 57" fill="#1b1d1b" xmlns="http://www.w3.org/2000/svg">
<path opacity="0.2" d="M239.8 16.46L240.281 15.9794L239.8 16.46ZM239.8 41.12L240.281 41.6006L239.8 41.12ZM219.28 44V43.3203H218.6V44H219.28ZM214.9 55.34L214.419 55.8206L214.9 55.34ZM218.62 14.24L218.139 14.7206H218.139L218.62 14.24ZM219.28 16.88H218.6V18.5209L219.761 17.3606L219.28 16.88ZM237.04 21.26L236.413 21.5214L237.04 21.26ZM235 19.22L234.739 19.8474L235 19.22ZM222.04 19.58L221.808 18.9412L221.803 18.943L222.04 19.58ZM219.28 22.4L218.603 22.3345L218.6 22.3672V22.4H219.28ZM219.28 38.96H218.6V39.6397H219.28V38.96ZM235 38.36L234.739 37.7326L235 38.36ZM230.92 14.2597C234.825 14.2597 237.576 15.1976 239.319 16.9406L240.281 15.9794C238.184 13.8824 235.015 12.9003 230.92 12.9003V14.2597ZM239.319 16.9406C241.062 18.6836 242 21.4354 242 25.34H243.36C243.36 21.2446 242.378 18.0764 240.281 15.9794L239.319 16.9406ZM242 25.34V32.24H243.36V25.34H242ZM242 32.24C242 36.1446 241.062 38.8964 239.319 40.6394L240.281 41.6006C242.378 39.5036 243.36 36.3354 243.36 32.24H242ZM239.319 40.6394C237.576 42.3824 234.825 43.3203 230.92 43.3203V44.6797C235.015 44.6797 238.184 43.6976 240.281 41.6006L239.319 40.6394ZM230.92 43.3203H219.28V44.6797H230.92V43.3203ZM218.6 44V53.48H219.96V44H218.6ZM218.6 53.48C218.6 54.1536 218.418 54.5805 218.139 54.8594L219.101 55.8206C219.702 55.2195 219.96 54.4064 219.96 53.48H218.6ZM218.139 54.8594C217.86 55.1383 217.434 55.3203 216.76 55.3203V56.6797C217.686 56.6797 218.5 56.4217 219.101 55.8206L218.139 54.8594ZM216.76 55.3203C216.086 55.3203 215.66 55.1383 215.381 54.8594L214.419 55.8206C215.02 56.4217 215.834 56.6797 216.76 56.6797V55.3203ZM215.381 54.8594C215.102 54.5805 214.92 54.1536 214.92 53.48H213.56C213.56 54.4064 213.818 55.2195 214.419 55.8206L215.381 54.8594ZM214.92 53.48V16.1H213.56V53.48H214.92ZM214.92 16.1C214.92 15.4264 215.102 14.9995 215.381 14.7206L214.419 13.7594C213.818 14.3605 213.56 15.1736 213.56 16.1H214.92ZM215.381 14.7206C215.66 14.4417 216.086 14.2597 216.76 14.2597V12.9003C215.834 12.9003 215.02 13.1583 214.419 13.7594L215.381 14.7206ZM216.76 14.2597C217.434 14.2597 217.86 14.4417 218.139 14.7206L219.101 13.7594C218.5 13.1583 217.686 12.9003 216.76 12.9003V14.2597ZM218.139 14.7206C218.418 14.9995 218.6 15.4264 218.6 16.1H219.96C219.96 15.1736 219.702 14.3605 219.101 13.7594L218.139 14.7206ZM218.6 16.1V16.88H219.96V16.1H218.6ZM219.761 17.3606C221.798 15.3229 224.724 14.2597 228.64 14.2597V12.9003C224.476 12.9003 221.162 14.0371 218.799 16.3994L219.761 17.3606ZM228.64 14.2597H230.92V12.9003H228.64V14.2597ZM238.32 25.34C238.32 23.5438 238.118 22.0796 237.667 20.9986L236.413 21.5214C236.762 22.3604 236.96 23.6162 236.96 25.34H238.32ZM237.667 20.9986C237.198 19.8731 236.387 19.0616 235.261 18.5926L234.739 19.8474C235.533 20.1784 236.082 20.7269 236.413 21.5214L237.667 20.9986ZM235.261 18.5926C234.18 18.1422 232.716 17.9403 230.92 17.9403V19.2997C232.644 19.2997 233.9 19.4978 234.739 19.8474L235.261 18.5926ZM230.92 17.9403H228.64V19.2997H230.92V17.9403ZM228.64 17.9403C225.951 17.9403 223.666 18.2656 221.808 18.9413L222.272 20.2187C223.934 19.6144 226.049 19.2997 228.64 19.2997V17.9403ZM221.803 18.943C219.97 19.6252 218.76 20.7212 218.603 22.3345L219.957 22.4655C220.04 21.5988 220.67 20.8148 222.277 20.217L221.803 18.943ZM218.6 22.4V38.96H219.96V22.4H218.6ZM219.28 39.6397H230.92V38.2803H219.28V39.6397ZM230.92 39.6397C232.716 39.6397 234.18 39.4378 235.261 38.9874L234.739 37.7326C233.9 38.0822 232.644 38.2803 230.92 38.2803V39.6397ZM235.261 38.9874C236.387 38.5184 237.198 37.7069 237.667 36.5814L236.413 36.0586C236.082 36.8531 235.533 37.4016 234.739 37.7326L235.261 38.9874ZM237.667 36.5814C238.118 35.5004 238.32 34.0362 238.32 32.24H236.96C236.96 33.9638 236.762 35.2196 236.413 36.0586L237.667 36.5814ZM238.32 32.24V25.34H236.96V32.24H238.32ZM261.652 20.54L262.032 21.1036L262.035 21.1018L261.652 20.54ZM258.772 25.64L258.093 25.6148L258.093 25.6274V25.64H258.772ZM258.112 43.34L257.632 42.8594L258.112 43.34ZM258.772 18.44H258.093V20.4723L259.315 18.8489L258.772 18.44ZM269.572 14.2597C270.246 14.2597 270.673 14.4417 270.952 14.7206L271.913 13.7594C271.312 13.1583 270.499 12.9003 269.572 12.9003V14.2597ZM270.952 14.7206C271.231 14.9995 271.413 15.4264 271.413 16.1H272.772C272.772 15.1736 272.514 14.3605 271.913 13.7594L270.952 14.7206ZM271.413 16.1C271.413 16.7736 271.231 17.2005 270.952 17.4794L271.913 18.4406C272.514 17.8395 272.772 17.0264 272.772 16.1H271.413ZM270.952 17.4794C270.673 17.7583 270.246 17.9403 269.572 17.9403V19.2997C270.499 19.2997 271.312 19.0417 271.913 18.4406L270.952 17.4794ZM269.572 17.9403C266.099 17.9403 263.306 18.5921 261.27 19.9782L262.035 21.1018C263.759 19.9279 266.245 19.2997 269.572 19.2997V17.9403ZM261.272 19.9764C259.258 21.3339 258.181 23.2311 258.093 25.6148L259.451 25.6652C259.523 23.7289 260.366 22.2261 262.032 21.1036L261.272 19.9764ZM258.093 25.64V41.48H259.452V25.64H258.093ZM258.093 41.48C258.093 42.1536 257.911 42.5805 257.632 42.8594L258.593 43.8206C259.194 43.2195 259.452 42.4064 259.452 41.48H258.093ZM257.632 42.8594C257.353 43.1383 256.926 43.3203 256.252 43.3203V44.6797C257.179 44.6797 257.992 44.4217 258.593 43.8206L257.632 42.8594ZM256.252 43.3203C255.579 43.3203 255.152 43.1383 254.873 42.8594L253.912 43.8206C254.513 44.4217 255.326 44.6797 256.252 44.6797V43.3203ZM254.873 42.8594C254.594 42.5805 254.412 42.1536 254.412 41.48H253.053C253.053 42.4064 253.311 43.2195 253.912 43.8206L254.873 42.8594ZM254.412 41.48V16.1H253.053V41.48H254.412ZM254.412 16.1C254.412 15.3648 254.595 14.9382 254.843 14.6906C255.09 14.443 255.517 14.2597 256.252 14.2597V12.9003C255.307 12.9003 254.474 13.137 253.882 13.7294C253.289 14.3218 253.053 15.1552 253.053 16.1H254.412ZM256.252 14.2597C256.987 14.2597 257.414 14.443 257.662 14.6906C257.909 14.9382 258.093 15.3648 258.093 16.1H259.452C259.452 15.1552 259.215 14.3218 258.623 13.7294C258.03 13.137 257.197 12.9003 256.252 12.9003V14.2597ZM258.093 16.1V18.44H259.452V16.1H258.093ZM259.315 18.8489C261.603 15.8103 264.984 14.2597 269.572 14.2597V12.9003C264.641 12.9003 260.821 14.5897 258.229 18.0311L259.315 18.8489ZM279.606 41.12L279.125 41.6006L279.606 41.12ZM279.606 16.46L279.125 15.9794L279.606 16.46ZM302.286 16.46L302.766 15.9794L302.286 16.46ZM302.286 41.12L302.766 41.6006L302.286 41.12ZM297.486 38.36L297.747 38.9874L297.486 38.36ZM299.526 36.32L298.898 36.0586L299.526 36.32ZM299.526 21.26L298.898 21.5214V21.5214L299.526 21.26ZM297.486 19.22L297.747 18.5926L297.486 19.22ZM284.346 19.22L284.084 18.5925L284.075 18.5967L284.346 19.22ZM282.366 21.26L282.989 21.531L282.993 21.5214L282.366 21.26ZM282.366 36.38L281.738 36.6414L281.742 36.651L282.366 36.38ZM284.406 38.36L284.144 38.9874L284.406 38.36ZM288.486 43.3203C284.581 43.3203 281.829 42.3824 280.086 40.6394L279.125 41.6006C281.222 43.6976 284.39 44.6797 288.486 44.6797V43.3203ZM280.086 40.6394C278.342 38.8953 277.405 36.1623 277.405 32.3H276.046C276.046 36.3577 277.029 39.5047 279.125 41.6006L280.086 40.6394ZM277.405 32.3V25.34H276.046V32.3H277.405ZM277.405 25.34C277.405 21.4354 278.343 18.6836 280.086 16.9406L279.125 15.9794C277.028 18.0764 276.046 21.2446 276.046 25.34H277.405ZM280.086 16.9406C281.829 15.1976 284.581 14.2597 288.486 14.2597V12.9003C284.39 12.9003 281.222 13.8824 279.125 15.9794L280.086 16.9406ZM288.486 14.2597H293.406V12.9003H288.486V14.2597ZM293.406 14.2597C297.31 14.2597 300.062 15.1976 301.805 16.9406L302.766 15.9794C300.669 13.8824 297.501 12.9003 293.406 12.9003V14.2597ZM301.805 16.9406C303.548 18.6836 304.486 21.4354 304.486 25.34H305.845C305.845 21.2446 304.863 18.0764 302.766 15.9794L301.805 16.9406ZM304.486 25.34V32.24H305.845V25.34H304.486ZM304.486 32.24C304.486 36.1446 303.548 38.8964 301.805 40.6394L302.766 41.6006C304.863 39.5036 305.845 36.3354 305.845 32.24H304.486ZM301.805 40.6394C300.062 42.3824 297.31 43.3203 293.406 43.3203V44.6797C297.501 44.6797 300.669 43.6976 302.766 41.6006L301.805 40.6394ZM293.406 43.3203H288.486V44.6797H293.406V43.3203ZM293.406 39.6397C295.202 39.6397 296.666 39.4378 297.747 38.9874L297.224 37.7326C296.385 38.0822 295.13 38.2803 293.406 38.2803V39.6397ZM297.747 38.9874C298.873 38.5184 299.684 37.7069 300.153 36.5814L298.898 36.0586C298.567 36.8531 298.019 37.4016 297.224 37.7326L297.747 38.9874ZM300.153 36.5814C300.604 35.5004 300.805 34.0362 300.805 32.24H299.446C299.446 33.9638 299.248 35.2196 298.898 36.0586L300.153 36.5814ZM300.805 32.24V25.34H299.446V32.24H300.805ZM300.805 25.34C300.805 23.5438 300.604 22.0796 300.153 20.9986L298.898 21.5214C299.248 22.3604 299.446 23.6162 299.446 25.34H300.805ZM300.153 20.9986C299.684 19.8731 298.873 19.0616 297.747 18.5926L297.224 19.8474C298.019 20.1784 298.567 20.7269 298.898 21.5214L300.153 20.9986ZM297.747 18.5926C296.666 18.1422 295.202 17.9403 293.406 17.9403V19.2997C295.13 19.2997 296.385 19.4978 297.224 19.8474L297.747 18.5926ZM293.406 17.9403H288.486V19.2997H293.406V17.9403ZM288.486 17.9403C286.652 17.9403 285.167 18.1416 284.084 18.5926L284.607 19.8474C285.445 19.4984 286.72 19.2997 288.486 19.2997V17.9403ZM284.075 18.5967C282.987 19.0695 282.203 19.883 281.738 20.9986L282.993 21.5214C283.328 20.717 283.864 20.1705 284.617 19.8433L284.075 18.5967ZM281.742 20.989C281.287 22.0375 281.086 23.5091 281.086 25.34H282.445C282.445 23.5709 282.645 22.3225 282.989 21.531L281.742 20.989ZM281.086 25.34V32.3H282.445V25.34H281.086ZM281.086 32.3C281.086 34.0962 281.288 35.5604 281.738 36.6414L282.993 36.1186C282.644 35.2796 282.445 34.0238 282.445 32.3H281.086ZM281.742 36.651C282.215 37.7385 283.029 38.5226 284.144 38.9874L284.667 37.7326C283.863 37.3974 283.316 36.8615 282.989 36.109L281.742 36.651ZM284.144 38.9874C285.225 39.4378 286.69 39.6397 288.486 39.6397V38.2803C286.762 38.2803 285.506 38.0822 284.667 37.7326L284.144 38.9874ZM288.486 39.6397H293.406V38.2803H288.486V39.6397ZM342.533 43.34L343.014 43.8206L342.533 43.34ZM338.813 43.34L339.294 42.8594L338.813 43.34ZM338.153 41.06H338.833V39.4191L337.673 40.5794L338.153 41.06ZM334.373 43.28L334.168 42.6319L334.163 42.6335L334.373 43.28ZM317.633 41.12L317.153 41.6006L317.633 41.12ZM317.633 16.46L317.153 15.9794L317.633 16.46ZM338.153 13.58V14.2597H338.833V13.58H338.153ZM338.813 2.42L339.294 2.90059V2.90059L338.813 2.42ZM335.513 37.94L335.763 38.5721L335.77 38.5691L335.513 37.94ZM338.153 18.62H338.833V17.9403H338.153V18.62ZM322.433 19.22L322.172 18.5926L322.433 19.22ZM320.393 21.26L321.021 21.5214L320.393 21.26ZM322.433 38.36L322.172 38.9874L322.433 38.36ZM340.673 2.43966C341.347 2.43966 341.774 2.62167 342.053 2.90059L343.014 1.9394C342.413 1.33832 341.6 1.08033 340.673 1.08033V2.43966ZM342.053 2.90059C342.331 3.17951 342.513 3.60638 342.513 4.28H343.873C343.873 3.35361 343.615 2.54048 343.014 1.9394L342.053 2.90059ZM342.513 4.28V41.48H343.873V4.28H342.513ZM342.513 41.48C342.513 42.1536 342.331 42.5805 342.053 42.8594L343.014 43.8206C343.615 43.2195 343.873 42.4064 343.873 41.48H342.513ZM342.053 42.8594C341.774 43.1383 341.347 43.3203 340.673 43.3203V44.6797C341.6 44.6797 342.413 44.4217 343.014 43.8206L342.053 42.8594ZM340.673 43.3203C340 43.3203 339.573 43.1383 339.294 42.8594L338.333 43.8206C338.934 44.4217 339.747 44.6797 340.673 44.6797V43.3203ZM339.294 42.8594C339.015 42.5805 338.833 42.1536 338.833 41.48H337.473C337.473 42.4064 337.731 43.2195 338.333 43.8206L339.294 42.8594ZM338.833 41.48V41.06H337.473V41.48H338.833ZM337.673 40.5794C336.759 41.4929 335.598 42.1805 334.168 42.6319L334.578 43.9281C336.189 43.4195 337.547 42.6271 338.634 41.5406L337.673 40.5794ZM334.163 42.6335C332.774 43.0842 330.99 43.3203 328.793 43.3203V44.6797C331.076 44.6797 333.012 44.4358 334.583 43.9265L334.163 42.6335ZM328.793 43.3203H326.513V44.6797H328.793V43.3203ZM326.513 43.3203C322.608 43.3203 319.857 42.3824 318.114 40.6394L317.153 41.6006C319.25 43.6976 322.418 44.6797 326.513 44.6797V43.3203ZM318.114 40.6394C316.371 38.8964 315.433 36.1446 315.433 32.24H314.073C314.073 36.3354 315.056 39.5036 317.153 41.6006L318.114 40.6394ZM315.433 32.24V25.34H314.073V32.24H315.433ZM315.433 25.34C315.433 21.4354 316.371 18.6836 318.114 16.9406L317.153 15.9794C315.056 18.0764 314.073 21.2446 314.073 25.34H315.433ZM318.114 16.9406C319.857 15.1976 322.608 14.2597 326.513 14.2597V12.9003C322.418 12.9003 319.25 13.8824 317.153 15.9794L318.114 16.9406ZM326.513 14.2597H338.153V12.9003H326.513V14.2597ZM338.833 13.58V4.28H337.473V13.58H338.833ZM338.833 4.28C338.833 3.60638 339.015 3.17951 339.294 2.90059L338.333 1.9394C337.731 2.54048 337.473 3.35361 337.473 4.28H338.833ZM339.294 2.90059C339.573 2.62167 340 2.43966 340.673 2.43966V1.08033C339.747 1.08033 338.934 1.33832 338.333 1.93941L339.294 2.90059ZM328.793 39.6397C331.601 39.6397 333.934 39.295 335.763 38.5721L335.263 37.3079C333.652 37.945 331.506 38.2803 328.793 38.2803V39.6397ZM335.77 38.5691C337.665 37.7941 338.833 36.5669 338.833 34.82H337.473C337.473 35.7931 336.882 36.6459 335.256 37.3109L335.77 38.5691ZM338.833 34.82V18.62H337.473V34.82H338.833ZM338.153 17.9403H326.513V19.2997H338.153V17.9403ZM326.513 17.9403C324.717 17.9403 323.253 18.1422 322.172 18.5926L322.695 19.8474C323.534 19.4978 324.789 19.2997 326.513 19.2997V17.9403ZM322.172 18.5926C321.046 19.0616 320.235 19.8731 319.766 20.9986L321.021 21.5214C321.352 20.7269 321.9 20.1784 322.695 19.8474L322.172 18.5926ZM319.766 20.9986C319.315 22.0796 319.113 23.5438 319.113 25.34H320.473C320.473 23.6162 320.671 22.3604 321.021 21.5214L319.766 20.9986ZM319.113 25.34V32.24H320.473V25.34H319.113ZM319.113 32.24C319.113 34.0362 319.315 35.5004 319.766 36.5814L321.021 36.0586C320.671 35.2196 320.473 33.9638 320.473 32.24H319.113ZM319.766 36.5814C320.235 37.7069 321.046 38.5184 322.172 38.9874L322.695 37.7326C321.9 37.4016 321.352 36.8531 321.021 36.0586L319.766 36.5814ZM322.172 38.9874C323.253 39.4378 324.717 39.6397 326.513 39.6397V38.2803C324.789 38.2803 323.534 38.0822 322.695 37.7326L322.172 38.9874ZM326.513 39.6397H328.793V38.2803H326.513V39.6397ZM381.679 14.24L382.16 13.7594V13.7594L381.679 14.24ZM377.299 40.46H377.979V38.6863L376.794 40.0058L377.299 40.46ZM357.379 41.12L356.899 41.6006L357.379 41.12ZM358.879 14.24L359.36 13.7594V13.7594L358.879 14.24ZM362.179 38.36L362.441 37.7326L362.179 38.36ZM374.299 38.12L374.51 38.7663L374.519 38.7633L374.299 38.12ZM377.299 35.54L377.964 35.6824L377.979 35.612V35.54H377.299ZM377.959 14.24L377.479 13.7594V13.7594L377.959 14.24ZM379.819 14.2597C380.493 14.2597 380.92 14.4417 381.199 14.7206L382.16 13.7594C381.559 13.1583 380.746 12.9003 379.819 12.9003V14.2597ZM381.199 14.7206C381.478 14.9995 381.66 15.4264 381.66 16.1H383.019C383.019 15.1736 382.761 14.3605 382.16 13.7594L381.199 14.7206ZM381.66 16.1V41.48H383.019V16.1H381.66ZM381.66 41.48C381.66 42.2152 381.476 42.6418 381.229 42.8894C380.981 43.137 380.555 43.3203 379.819 43.3203V44.6797C380.764 44.6797 381.598 44.443 382.19 43.8506C382.782 43.2582 383.019 42.4248 383.019 41.48H381.66ZM379.819 43.3203C379.084 43.3203 378.658 43.137 378.41 42.8894C378.162 42.6418 377.979 42.2152 377.979 41.48H376.62C376.62 42.4248 376.856 43.2582 377.449 43.8506C378.041 44.443 378.875 44.6797 379.819 44.6797V43.3203ZM377.979 41.48V40.46H376.62V41.48H377.979ZM376.794 40.0058C374.839 42.1824 371.928 43.3203 367.939 43.3203V44.6797C372.191 44.6797 375.52 43.4576 377.805 40.9142L376.794 40.0058ZM367.939 43.3203H366.259V44.6797H367.939V43.3203ZM366.259 43.3203C362.355 43.3203 359.603 42.3824 357.86 40.6394L356.899 41.6006C358.996 43.6976 362.164 44.6797 366.259 44.6797V43.3203ZM357.86 40.6394C356.117 38.8964 355.179 36.1446 355.179 32.24H353.82C353.82 36.3354 354.802 39.5036 356.899 41.6006L357.86 40.6394ZM355.179 32.24V16.1H353.82V32.24H355.179ZM355.179 16.1C355.179 15.4264 355.361 14.9995 355.64 14.7206L354.679 13.7594C354.078 14.3605 353.82 15.1736 353.82 16.1H355.179ZM355.64 14.7206C355.919 14.4417 356.346 14.2597 357.019 14.2597V12.9003C356.093 12.9003 355.28 13.1583 354.679 13.7594L355.64 14.7206ZM357.019 14.2597C357.693 14.2597 358.12 14.4417 358.399 14.7206L359.36 13.7594C358.759 13.1583 357.946 12.9003 357.019 12.9003V14.2597ZM358.399 14.7206C358.678 14.9995 358.86 15.4264 358.86 16.1H360.219C360.219 15.1736 359.961 14.3605 359.36 13.7594L358.399 14.7206ZM358.86 16.1V32.24H360.219V16.1H358.86ZM358.86 32.24C358.86 34.0362 359.062 35.5004 359.512 36.5814L360.767 36.0586C360.417 35.2196 360.219 33.9638 360.219 32.24H358.86ZM359.512 36.5814C359.981 37.7069 360.792 38.5184 361.918 38.9874L362.441 37.7326C361.646 37.4016 361.098 36.8531 360.767 36.0586L359.512 36.5814ZM361.918 38.9874C362.999 39.4378 364.463 39.6397 366.259 39.6397V38.2803C364.536 38.2803 363.28 38.0822 362.441 37.7326L361.918 38.9874ZM366.259 39.6397H367.939V38.2803H366.259V39.6397ZM367.939 39.6397C370.505 39.6397 372.701 39.3552 374.51 38.7663L374.089 37.4737C372.458 38.0048 370.414 38.2803 367.939 38.2803V39.6397ZM374.519 38.7633C376.358 38.1364 377.648 37.1559 377.964 35.6824L376.635 35.3976C376.471 36.1641 375.761 36.9036 374.08 37.4767L374.519 38.7633ZM377.979 35.54V16.1H376.62V35.54H377.979ZM377.979 16.1C377.979 15.4264 378.161 14.9995 378.44 14.7206L377.479 13.7594C376.878 14.3605 376.62 15.1736 376.62 16.1H377.979ZM378.44 14.7206C378.719 14.4417 379.146 14.2597 379.819 14.2597V12.9003C378.893 12.9003 378.08 13.1583 377.479 13.7594L378.44 14.7206ZM396.266 41.12L395.785 41.6006L396.266 41.12ZM396.266 16.4L396.747 16.8806L396.266 16.4ZM405.146 13.58L405.139 14.2597H405.146V13.58ZM420.386 19.7L419.724 19.8557L419.727 19.8648L420.386 19.7ZM419.726 21.8L419.318 21.2563L419.307 21.2649L419.296 21.274L419.726 21.8ZM416.246 21.8L415.765 22.2806L415.778 22.2932L415.791 22.3052L416.246 21.8ZM415.226 20.06L415.857 19.8076L415.843 19.7717L415.824 19.7378L415.226 20.06ZM413.606 18.98L413.411 19.631L413.426 19.6355L413.441 19.6394L413.606 18.98ZM405.146 18.62L405.13 19.2995L405.138 19.2997H405.146V18.62ZM401.066 19.16L400.805 18.5326L401.066 19.16ZM399.026 21.2L398.399 20.9386L399.026 21.2ZM401.066 38.36L400.805 38.9874L401.066 38.36ZM413.606 38.66L413.771 39.3194L413.786 39.3155L413.801 39.311L413.606 38.66ZM415.226 37.52L415.824 37.8422L415.845 37.8033L415.861 37.762L415.226 37.52ZM416.246 35.78L416.697 36.288L416.701 36.2852L416.246 35.78ZM419.726 35.78L419.296 36.306L419.307 36.3151L419.318 36.3237L419.726 35.78ZM420.386 37.88L419.727 37.7151L419.724 37.7243L420.386 37.88ZM405.146 43.3203C401.241 43.3203 398.49 42.3824 396.747 40.6394L395.785 41.6006C397.882 43.6976 401.051 44.6797 405.146 44.6797V43.3203ZM396.747 40.6394C395.004 38.8964 394.066 36.1446 394.066 32.24H392.706C392.706 36.3354 393.688 39.5036 395.785 41.6006L396.747 40.6394ZM394.066 32.24V25.28H392.706V32.24H394.066ZM394.066 25.28C394.066 21.3754 395.004 18.6236 396.747 16.8806L395.785 15.9194C393.688 18.0164 392.706 21.1846 392.706 25.28H394.066ZM396.747 16.8806C398.487 15.1401 401.235 14.2206 405.139 14.2596L405.153 12.9004C401.056 12.8594 397.885 13.8199 395.785 15.9194L396.747 16.8806ZM405.146 14.2597H410.066V12.9003H405.146V14.2597ZM410.066 14.2597C412.959 14.2597 415.163 14.7598 416.739 15.6946C418.292 16.6154 419.284 17.9858 419.724 19.8557L421.048 19.5443C420.527 17.3342 419.32 15.6446 417.433 14.5254C415.569 13.4202 413.093 12.9003 410.066 12.9003V14.2597ZM419.727 19.8648C419.749 19.9526 419.766 20.0928 419.766 20.3H421.126C421.126 20.0272 421.103 19.7674 421.045 19.5352L419.727 19.8648ZM419.766 20.3C419.766 20.7427 419.614 21.0343 419.318 21.2563L420.134 22.3437C420.798 21.8457 421.126 21.1373 421.126 20.3H419.766ZM419.296 21.274C419.012 21.5056 418.582 21.6603 417.926 21.6603V23.0197C418.79 23.0197 419.559 22.8144 420.156 22.326L419.296 21.274ZM417.926 21.6603C417.316 21.6603 416.939 21.5091 416.701 21.2948L415.791 22.3052C416.353 22.8109 417.096 23.0197 417.926 23.0197V21.6603ZM416.727 21.3194C416.462 21.0545 416.163 20.5732 415.857 19.8076L414.595 20.3124C414.929 21.1468 415.31 21.8255 415.765 22.2806L416.727 21.3194ZM415.824 19.7378C415.422 18.9911 414.681 18.5481 413.771 18.3206L413.441 19.6394C414.131 19.8119 414.47 20.0889 414.628 20.3822L415.824 19.7378ZM413.801 18.329C412.905 18.0601 411.645 17.9403 410.066 17.9403V19.2997C411.607 19.2997 412.707 19.4199 413.411 19.631L413.801 18.329ZM410.066 17.9403H405.146V19.2997H410.066V17.9403ZM405.161 17.9405C403.363 17.8996 401.893 18.0792 400.805 18.5326L401.327 19.7874C402.159 19.4408 403.409 19.2604 405.13 19.2995L405.161 17.9405ZM400.805 18.5326C399.679 19.0016 398.868 19.8131 398.399 20.9386L399.653 21.4614C399.984 20.6669 400.533 20.1184 401.327 19.7874L400.805 18.5326ZM398.399 20.9386C397.948 22.0196 397.746 23.4838 397.746 25.28H399.106C399.106 23.5562 399.304 22.3004 399.653 21.4614L398.399 20.9386ZM397.746 25.28V32.24H399.106V25.28H397.746ZM397.746 32.24C397.746 34.0362 397.948 35.5004 398.399 36.5814L399.653 36.0586C399.304 35.2196 399.106 33.9638 399.106 32.24H397.746ZM398.399 36.5814C398.868 37.7069 399.679 38.5184 400.805 38.9874L401.327 37.7326C400.533 37.4016 399.984 36.8531 399.653 36.0586L398.399 36.5814ZM400.805 38.9874C401.886 39.4378 403.35 39.6397 405.146 39.6397V38.2803C403.422 38.2803 402.166 38.0822 401.327 37.7326L400.805 38.9874ZM405.146 39.6397H410.066V38.2803H405.146V39.6397ZM410.066 39.6397C411.642 39.6397 412.888 39.54 413.771 39.3194L413.441 38.0006C412.723 38.18 411.61 38.2803 410.066 38.2803V39.6397ZM413.801 39.311C414.702 39.0409 415.429 38.5769 415.824 37.8422L414.628 37.1978C414.463 37.5031 414.11 37.7991 413.411 38.009L413.801 39.311ZM415.861 37.762C416.17 36.9501 416.463 36.4965 416.697 36.288L415.794 35.272C415.309 35.7035 414.922 36.4099 414.591 37.278L415.861 37.762ZM416.701 36.2852C416.933 36.0764 417.325 35.9197 417.986 35.9197V34.5603C417.127 34.5603 416.359 34.7636 415.791 35.2748L416.701 36.2852ZM417.986 35.9197C418.592 35.9197 419.006 36.0694 419.296 36.306L420.156 35.254C419.566 34.7706 418.82 34.5603 417.986 34.5603V35.9197ZM419.318 36.3237C419.614 36.5457 419.766 36.8373 419.766 37.28H421.126C421.126 36.4427 420.798 35.7343 420.134 35.2363L419.318 36.3237ZM419.766 37.28C419.766 37.4872 419.749 37.6274 419.727 37.7152L421.045 38.0448C421.103 37.8126 421.126 37.5528 421.126 37.28H419.766ZM419.724 37.7243C419.284 39.5942 418.292 40.9646 416.739 41.8854C415.163 42.8202 412.959 43.3203 410.066 43.3203V44.6797C413.093 44.6797 415.569 44.1598 417.433 43.0546C419.32 41.9354 420.527 40.2458 421.048 38.0357L419.724 37.7243ZM410.066 43.3203H405.146V44.6797H410.066V43.3203ZM444.975 43.34L444.495 42.8594L444.975 43.34ZM431.535 18.62H432.215V17.9403H431.535V18.62ZM431.535 13.58V14.2597H432.215V13.58H431.535ZM432.195 7.34L432.676 7.8206V7.82059L432.195 7.34ZM435.915 7.34L435.435 7.82059V7.8206L435.915 7.34ZM436.575 13.58H435.895V14.2597H436.575V13.58ZM436.575 18.62V17.9403H435.895V18.62H436.575ZM437.175 36.44L436.552 36.711L437.175 36.44ZM439.155 38.42L438.884 39.0433L438.896 39.0483L438.907 39.0529L439.155 38.42ZM443.115 39.6397C443.85 39.6397 444.277 39.823 444.525 40.0706C444.772 40.3182 444.955 40.7448 444.955 41.48H446.315C446.315 40.5352 446.078 39.7018 445.486 39.1094C444.893 38.517 444.06 38.2803 443.115 38.2803V39.6397ZM444.955 41.48C444.955 42.1536 444.773 42.5805 444.495 42.8594L445.456 43.8206C446.057 43.2195 446.315 42.4064 446.315 41.48H444.955ZM444.495 42.8594C444.216 43.1383 443.789 43.3203 443.115 43.3203V44.6797C444.042 44.6797 444.855 44.4217 445.456 43.8206L444.495 42.8594ZM443.115 43.3203C439.248 43.3203 436.538 42.4012 434.836 40.6994L433.875 41.6606C435.933 43.7188 439.062 44.6797 443.115 44.6797V43.3203ZM434.836 40.6994C433.133 38.9965 432.215 36.3048 432.215 32.48H430.855C430.855 36.4952 431.817 39.6035 433.875 41.6606L434.836 40.6994ZM432.215 32.48V18.62H430.855V32.48H432.215ZM431.535 17.9403H428.595V19.2997H431.535V17.9403ZM428.595 17.9403C427.922 17.9403 427.495 17.7583 427.216 17.4794L426.255 18.4406C426.856 19.0417 427.669 19.2997 428.595 19.2997V17.9403ZM427.216 17.4794C426.937 17.2005 426.755 16.7736 426.755 16.1H425.395C425.395 17.0264 425.653 17.8395 426.255 18.4406L427.216 17.4794ZM426.755 16.1C426.755 15.3648 426.938 14.9382 427.186 14.6906C427.433 14.443 427.86 14.2597 428.595 14.2597V12.9003C427.65 12.9003 426.817 13.137 426.225 13.7294C425.632 14.3218 425.395 15.1552 425.395 16.1H426.755ZM428.595 14.2597H431.535V12.9003H428.595V14.2597ZM432.215 13.58V9.2H430.855V13.58H432.215ZM432.215 9.2C432.215 8.52638 432.397 8.09952 432.676 7.8206L431.715 6.8594C431.113 7.46048 430.855 8.27362 430.855 9.2H432.215ZM432.676 7.82059C432.955 7.54167 433.382 7.35966 434.055 7.35966V6.00033C433.129 6.00033 432.316 6.25832 431.715 6.85941L432.676 7.82059ZM434.055 7.35966C434.729 7.35966 435.156 7.54167 435.435 7.82059L436.396 6.85941C435.795 6.25832 434.982 6.00033 434.055 6.00033V7.35966ZM435.435 7.8206C435.713 8.09951 435.895 8.52638 435.895 9.2H437.255C437.255 8.27362 436.997 7.46048 436.396 6.8594L435.435 7.8206ZM435.895 9.2V13.58H437.255V9.2H435.895ZM436.575 14.2597H443.475V12.9003H436.575V14.2597ZM443.475 14.2597C444.21 14.2597 444.637 14.443 444.885 14.6906C445.132 14.9382 445.315 15.3648 445.315 16.1H446.675C446.675 15.1552 446.438 14.3218 445.846 13.7294C445.253 13.137 444.42 12.9003 443.475 12.9003V14.2597ZM445.315 16.1C445.315 16.7736 445.133 17.2005 444.855 17.4794L445.816 18.4406C446.417 17.8395 446.675 17.0264 446.675 16.1H445.315ZM444.855 17.4794C444.576 17.7583 444.149 17.9403 443.475 17.9403V19.2997C444.402 19.2997 445.215 19.0417 445.816 18.4406L444.855 17.4794ZM443.475 17.9403H436.575V19.2997H443.475V17.9403ZM435.895 18.62V32.48H437.255V18.62H435.895ZM435.895 32.48C435.895 34.236 436.097 35.6652 436.552 36.711L437.798 36.169C437.453 35.3748 437.255 34.164 437.255 32.48H435.895ZM436.552 36.711C437.02 37.7888 437.806 38.5747 438.884 39.0433L439.426 37.7967C438.664 37.4653 438.13 36.9312 437.798 36.169L436.552 36.711ZM438.907 39.0529C439.944 39.4586 441.364 39.6397 443.115 39.6397V38.2803C441.427 38.2803 440.206 38.1014 439.403 37.7871L438.907 39.0529ZM459.792 14.24L459.311 14.7206L459.792 14.24ZM459.792 43.34L459.311 42.8594L459.792 43.34ZM454.932 7.88L454.432 8.341L454.442 8.35098L454.451 8.36059L454.932 7.88ZM454.932 1.94L455.391 2.44102L455.393 2.43942L454.932 1.94ZM460.812 7.94L460.312 7.47899L460.311 7.48073L460.812 7.94ZM457.932 43.3203C457.258 43.3203 456.831 43.1383 456.552 42.8594L455.591 43.8206C456.192 44.4217 457.005 44.6797 457.932 44.6797V43.3203ZM456.552 42.8594C456.274 42.5805 456.092 42.1536 456.092 41.48H454.732C454.732 42.4064 454.99 43.2195 455.591 43.8206L456.552 42.8594ZM456.092 41.48V16.1H454.732V41.48H456.092ZM456.092 16.1C456.092 15.4264 456.274 14.9995 456.552 14.7206L455.591 13.7594C454.99 14.3605 454.732 15.1736 454.732 16.1H456.092ZM456.552 14.7206C456.831 14.4417 457.258 14.2597 457.932 14.2597V12.9003C457.005 12.9003 456.192 13.1583 455.591 13.7594L456.552 14.7206ZM457.932 14.2597C458.605 14.2597 459.032 14.4417 459.311 14.7206L460.272 13.7594C459.671 13.1583 458.858 12.9003 457.932 12.9003V14.2597ZM459.311 14.7206C459.59 14.9995 459.772 15.4264 459.772 16.1H461.132C461.132 15.1736 460.874 14.3605 460.272 13.7594L459.311 14.7206ZM459.772 16.1V41.48H461.132V16.1H459.772ZM459.772 41.48C459.772 42.1536 459.59 42.5805 459.311 42.8594L460.272 43.8206C460.874 43.2195 461.132 42.4064 461.132 41.48H459.772ZM459.311 42.8594C459.032 43.1383 458.605 43.3203 457.932 43.3203V44.6797C458.858 44.6797 459.671 44.4217 460.272 43.8206L459.311 42.8594ZM457.092 7.98033C456.304 7.98033 455.775 7.76172 455.412 7.3994L454.451 8.36059C455.129 9.03827 456.039 9.33966 457.092 9.33966V7.98033ZM455.431 7.41899C455.094 7.05322 454.892 6.53263 454.892 5.78H453.532C453.532 6.78737 453.81 7.66678 454.432 8.341L455.431 7.41899ZM454.892 5.78V3.98H453.532V5.78H454.892ZM454.892 3.98C454.892 3.16985 455.102 2.70635 455.391 2.44102L454.473 1.43898C453.802 2.05364 453.532 2.95014 453.532 3.98H454.892ZM455.393 2.43942C455.753 2.10673 456.29 1.89966 457.092 1.89966V0.540332C456.054 0.540332 455.15 0.81326 454.471 1.44058L455.393 2.43942ZM457.092 1.89966H458.832V0.540332H457.092V1.89966ZM458.832 1.89966C459.623 1.89966 460.093 2.10093 460.371 2.38528C460.652 2.6724 460.852 3.16106 460.852 3.98H462.212C462.212 2.95894 461.962 2.06759 461.343 1.43471C460.721 0.799065 459.84 0.540332 458.832 0.540332V1.89966ZM460.852 3.98V5.78H462.212V3.98H460.852ZM460.852 5.78C460.852 6.58193 460.645 7.11859 460.312 7.479L461.311 8.401C461.939 7.72141 462.212 6.81807 462.212 5.78H460.852ZM460.311 7.48073C460.04 7.77599 459.591 7.98033 458.832 7.98033V9.33966C459.833 9.33966 460.704 9.06401 461.313 8.39927L460.311 7.48073ZM458.832 7.98033H457.092V9.33966H458.832V7.98033ZM474.371 41.12L473.891 41.6006L474.371 41.12ZM474.371 16.46L473.891 15.9794L474.371 16.46ZM497.051 16.46L497.532 15.9794L497.051 16.46ZM497.051 41.12L497.532 41.6006L497.051 41.12ZM492.251 38.36L492.513 38.9874L492.251 38.36ZM494.291 36.32L493.664 36.0586L494.291 36.32ZM494.291 21.26L493.664 21.5214V21.5214L494.291 21.26ZM492.251 19.22L492.513 18.5926L492.251 19.22ZM479.111 19.22L478.85 18.5925L478.84 18.5967L479.111 19.22ZM477.131 21.26L477.755 21.531L477.759 21.5214L477.131 21.26ZM477.131 36.38L476.504 36.6414L476.508 36.651L477.131 36.38ZM479.171 38.36L478.91 38.9874L479.171 38.36ZM483.251 43.3203C479.347 43.3203 476.595 42.3824 474.852 40.6394L473.891 41.6006C475.988 43.6976 479.156 44.6797 483.251 44.6797V43.3203ZM474.852 40.6394C473.108 38.8953 472.171 36.1623 472.171 32.3H470.812C470.812 36.3577 471.795 39.5047 473.891 41.6006L474.852 40.6394ZM472.171 32.3V25.34H470.812V32.3H472.171ZM472.171 25.34C472.171 21.4354 473.109 18.6836 474.852 16.9406L473.891 15.9794C471.794 18.0764 470.812 21.2446 470.812 25.34H472.171ZM474.852 16.9406C476.595 15.1976 479.347 14.2597 483.251 14.2597V12.9003C479.156 12.9003 475.988 13.8824 473.891 15.9794L474.852 16.9406ZM483.251 14.2597H488.171V12.9003H483.251V14.2597ZM488.171 14.2597C492.076 14.2597 494.828 15.1976 496.571 16.9406L497.532 15.9794C495.435 13.8824 492.267 12.9003 488.171 12.9003V14.2597ZM496.571 16.9406C498.314 18.6836 499.252 21.4354 499.252 25.34H500.611C500.611 21.2446 499.629 18.0764 497.532 15.9794L496.571 16.9406ZM499.252 25.34V32.24H500.611V25.34H499.252ZM499.252 32.24C499.252 36.1446 498.314 38.8964 496.571 40.6394L497.532 41.6006C499.629 39.5036 500.611 36.3354 500.611 32.24H499.252ZM496.571 40.6394C494.828 42.3824 492.076 43.3203 488.171 43.3203V44.6797C492.267 44.6797 495.435 43.6976 497.532 41.6006L496.571 40.6394ZM488.171 43.3203H483.251V44.6797H488.171V43.3203ZM488.171 39.6397C489.968 39.6397 491.432 39.4378 492.513 38.9874L491.99 37.7326C491.151 38.0822 489.895 38.2803 488.171 38.2803V39.6397ZM492.513 38.9874C493.638 38.5184 494.45 37.7069 494.919 36.5814L493.664 36.0586C493.333 36.8531 492.785 37.4016 491.99 37.7326L492.513 38.9874ZM494.919 36.5814C495.369 35.5004 495.571 34.0362 495.571 32.24H494.212C494.212 33.9638 494.014 35.2196 493.664 36.0586L494.919 36.5814ZM495.571 32.24V25.34H494.212V32.24H495.571ZM495.571 25.34C495.571 23.5438 495.369 22.0796 494.919 20.9986L493.664 21.5214C494.014 22.3604 494.212 23.6162 494.212 25.34H495.571ZM494.919 20.9986C494.45 19.8731 493.638 19.0616 492.513 18.5926L491.99 19.8474C492.785 20.1784 493.333 20.7269 493.664 21.5214L494.919 20.9986ZM492.513 18.5926C491.432 18.1422 489.968 17.9403 488.171 17.9403V19.2997C489.895 19.2997 491.151 19.4978 491.99 19.8474L492.513 18.5926ZM488.171 17.9403H483.251V19.2997H488.171V17.9403ZM483.251 17.9403C481.418 17.9403 479.932 18.1416 478.85 18.5926L479.373 19.8474C480.21 19.4984 481.485 19.2997 483.251 19.2997V17.9403ZM478.84 18.5967C477.753 19.0695 476.969 19.883 476.504 20.9986L477.759 21.5214C478.094 20.717 478.63 20.1705 479.382 19.8433L478.84 18.5967ZM476.508 20.989C476.052 22.0375 475.852 23.5091 475.852 25.34H477.211C477.211 23.5709 477.411 22.3225 477.755 21.531L476.508 20.989ZM475.852 25.34V32.3H477.211V25.34H475.852ZM475.852 32.3C475.852 34.0962 476.054 35.5604 476.504 36.6414L477.759 36.1186C477.409 35.2796 477.211 34.0238 477.211 32.3H475.852ZM476.508 36.651C476.981 37.7385 477.794 38.5226 478.91 38.9874L479.433 37.7326C478.628 37.3974 478.082 36.8615 477.755 36.109L476.508 36.651ZM478.91 38.9874C479.991 39.4378 481.455 39.6397 483.251 39.6397V38.2803C481.528 38.2803 480.272 38.0822 479.433 37.7326L478.91 38.9874ZM483.251 39.6397H488.171V38.2803H483.251V39.6397ZM535.919 16.46L536.399 15.9794L535.919 16.46ZM538.139 43.34L538.619 43.8206L538.139 43.34ZM533.159 21.26L533.786 20.9986L533.159 21.26ZM531.119 19.22L531.38 18.5926L531.119 19.22ZM518.939 19.52L519.149 20.1663L519.158 20.1633L518.939 19.52ZM515.999 22.04L515.334 21.8976L515.319 21.968V22.04H515.999ZM515.339 43.34L514.858 42.8594L515.339 43.34ZM515.999 17.12H515.319V18.8937L516.504 17.5742L515.999 17.12ZM527.039 14.2597C530.943 14.2597 533.695 15.1976 535.438 16.9406L536.399 15.9794C534.302 13.8824 531.134 12.9003 527.039 12.9003V14.2597ZM535.438 16.9406C537.181 18.6836 538.119 21.4354 538.119 25.34H539.478C539.478 21.2446 538.496 18.0764 536.399 15.9794L535.438 16.9406ZM538.119 25.34V41.48H539.478V25.34H538.119ZM538.119 41.48C538.119 42.1536 537.937 42.5805 537.658 42.8594L538.619 43.8206C539.22 43.2195 539.478 42.4064 539.478 41.48H538.119ZM537.658 42.8594C537.379 43.1383 536.952 43.3203 536.279 43.3203V44.6797C537.205 44.6797 538.018 44.4217 538.619 43.8206L537.658 42.8594ZM536.279 43.3203C535.605 43.3203 535.178 43.1383 534.899 42.8594L533.938 43.8206C534.539 44.4217 535.352 44.6797 536.279 44.6797V43.3203ZM534.899 42.8594C534.62 42.5805 534.438 42.1536 534.438 41.48H533.079C533.079 42.4064 533.337 43.2195 533.938 43.8206L534.899 42.8594ZM534.438 41.48V25.34H533.079V41.48H534.438ZM534.438 25.34C534.438 23.5438 534.237 22.0796 533.786 20.9986L532.531 21.5214C532.881 22.3604 533.079 23.6162 533.079 25.34H534.438ZM533.786 20.9986C533.317 19.8731 532.506 19.0616 531.38 18.5926L530.857 19.8474C531.652 20.1784 532.2 20.7269 532.531 21.5214L533.786 20.9986ZM531.38 18.5926C530.299 18.1422 528.835 17.9403 527.039 17.9403V19.2997C528.763 19.2997 530.018 19.4978 530.857 19.8474L531.38 18.5926ZM527.039 17.9403H525.359V19.2997H527.039V17.9403ZM525.359 17.9403C522.789 17.9403 520.57 18.2458 518.719 18.8767L519.158 20.1633C520.827 19.5942 522.889 19.2997 525.359 19.2997V17.9403ZM518.728 18.8737C516.92 19.4626 515.65 20.4242 515.334 21.8976L516.663 22.1824C516.828 21.4158 517.518 20.6974 519.149 20.1663L518.728 18.8737ZM515.319 22.04V41.48H516.678V22.04H515.319ZM515.319 41.48C515.319 42.1536 515.137 42.5805 514.858 42.8594L515.819 43.8206C516.42 43.2195 516.678 42.4064 516.678 41.48H515.319ZM514.858 42.8594C514.579 43.1383 514.152 43.3203 513.479 43.3203V44.6797C514.405 44.6797 515.218 44.4217 515.819 43.8206L514.858 42.8594ZM513.479 43.3203C512.805 43.3203 512.378 43.1383 512.099 42.8594L511.138 43.8206C511.739 44.4217 512.552 44.6797 513.479 44.6797V43.3203ZM512.099 42.8594C511.82 42.5805 511.638 42.1536 511.638 41.48H510.279C510.279 42.4064 510.537 43.2195 511.138 43.8206L512.099 42.8594ZM511.638 41.48V16.1H510.279V41.48H511.638ZM511.638 16.1C511.638 15.3648 511.822 14.9382 512.069 14.6906C512.317 14.443 512.744 14.2597 513.479 14.2597V12.9003C512.534 12.9003 511.701 13.137 511.108 13.7294C510.516 14.3218 510.279 15.1552 510.279 16.1H511.638ZM513.479 14.2597C514.214 14.2597 514.641 14.443 514.888 14.6906C515.136 14.9382 515.319 15.3648 515.319 16.1H516.678C516.678 15.1552 516.442 14.3218 515.849 13.7294C515.257 13.137 514.424 12.9003 513.479 12.9003V14.2597ZM515.319 16.1V17.12H516.678V16.1H515.319ZM516.504 17.5742C518.46 15.3976 521.371 14.2597 525.359 14.2597V12.9003C521.107 12.9003 517.778 14.1224 515.493 16.6658L516.504 17.5742ZM525.359 14.2597H527.039V12.9003H525.359V14.2597Z" fill="black"/>
<path opacity="0.2" d="M27.96 13.88L28.2541 13.2673L28.238 13.2595L28.2214 13.2526L27.96 13.88ZM29.16 17.24L29.7813 17.5155L29.7882 17.4999L29.7944 17.484L29.16 17.24ZM18.12 42.14L17.4985 41.8645L17.4932 41.8772L18.12 42.14ZM12.54 42.02L11.9112 42.2782L11.9143 42.2854L12.54 42.02ZM2.34 17.18L1.70564 17.424L1.70838 17.4311L1.71128 17.4382L2.34 17.18ZM3.66 13.88L3.89606 14.5174L3.90883 14.5126L3.92141 14.5074L3.66 13.88ZM6.96 15.2L7.589 14.9425L7.58518 14.9332L7.58109 14.924L6.96 15.2ZM15.36 35.72L14.731 35.9775L15.3321 37.4458L15.9803 35.9977L15.36 35.72ZM24.6 15.08L23.997 14.7664L23.9878 14.7841L23.9797 14.8023L24.6 15.08ZM27.6659 14.4927C28.0959 14.6991 28.3709 14.9261 28.5374 15.1526C28.6978 15.3707 28.7803 15.6183 28.7803 15.92H30.1397C30.1397 15.3417 29.9722 14.8093 29.6326 14.3474C29.2991 13.8939 28.8241 13.5409 28.2541 13.2673L27.6659 14.4927ZM28.7803 15.92C28.7803 16.1638 28.7103 16.5159 28.5256 16.996L29.7944 17.484C30.0097 16.9241 30.1397 16.3962 30.1397 15.92H28.7803ZM28.5387 16.9645L17.4987 41.8645L18.7413 42.4155L29.7813 17.5155L28.5387 16.9645ZM17.4932 41.8772C17.2766 42.3936 16.987 42.7408 16.6413 42.9641C16.2936 43.1886 15.8388 43.3203 15.24 43.3203V44.6797C16.0412 44.6797 16.7664 44.5014 17.3787 44.1059C17.993 43.7092 18.4434 43.1264 18.7468 42.4028L17.4932 41.8772ZM15.24 43.3203C14.7477 43.3203 14.3575 43.192 14.0369 42.9569C13.7099 42.7171 13.4113 42.3334 13.1657 41.7546L11.9143 42.2854C12.2287 43.0266 12.6601 43.6329 13.2331 44.0531C13.8125 44.478 14.4923 44.6797 15.24 44.6797V43.3203ZM13.1687 41.7618L2.96872 16.9218L1.71128 17.4382L11.9113 42.2782L13.1687 41.7618ZM2.97436 16.936C2.78548 16.4449 2.71966 16.1166 2.71966 15.92H1.36034C1.36034 16.3634 1.49452 16.8751 1.70564 17.424L2.97436 16.936ZM2.71966 15.92C2.71966 15.5763 2.81288 15.3197 2.97725 15.1127C3.14868 14.8968 3.43557 14.6879 3.89606 14.5174L3.42394 13.2426C2.80443 13.4721 2.28132 13.8032 1.91275 14.2673C1.53712 14.7403 1.36034 15.3037 1.36034 15.92H2.71966ZM3.92141 14.5074C4.36398 14.323 4.66846 14.2597 4.86 14.2597V12.9003C4.41154 12.9003 3.91602 13.037 3.39859 13.2526L3.92141 14.5074ZM4.86 14.2597C5.17635 14.2597 5.43389 14.3488 5.65986 14.5231C5.89549 14.7049 6.12991 15.0058 6.33892 15.476L7.58109 14.924C7.31009 14.3142 6.95451 13.8051 6.49014 13.4469C6.01611 13.0812 5.46365 12.9003 4.86 12.9003V14.2597ZM6.331 15.4575L14.731 35.9775L15.989 35.4625L7.589 14.9425L6.331 15.4575ZM15.9803 35.9977L25.2203 15.3577L23.9797 14.8023L14.7397 35.4423L15.9803 35.9977ZM25.203 15.3936C25.6375 14.5579 26.1553 14.2597 26.76 14.2597V12.9003C25.5247 12.9003 24.6025 13.6021 23.997 14.7664L25.203 15.3936ZM26.76 14.2597C26.9515 14.2597 27.256 14.323 27.6986 14.5074L28.2214 13.2526C27.704 13.037 27.2085 12.9003 26.76 12.9003V14.2597ZM42.202 14.24L41.7214 14.7206L42.202 14.24ZM42.202 43.34L41.7214 42.8594L42.202 43.34ZM37.342 7.88L36.8426 8.341L36.8518 8.35098L36.8614 8.36059L37.342 7.88ZM37.342 1.94L37.8013 2.44102L37.803 2.43942L37.342 1.94ZM43.222 7.94L42.7226 7.47899L42.721 7.48073L43.222 7.94ZM40.342 43.3203C39.6684 43.3203 39.2415 43.1383 38.9626 42.8594L38.0014 43.8206C38.6025 44.4217 39.4156 44.6797 40.342 44.6797V43.3203ZM38.9626 42.8594C38.6837 42.5805 38.5017 42.1536 38.5017 41.48H37.1424C37.1424 42.4064 37.4004 43.2195 38.0014 43.8206L38.9626 42.8594ZM38.5017 41.48V16.1H37.1424V41.48H38.5017ZM38.5017 16.1C38.5017 15.4264 38.6837 14.9995 38.9626 14.7206L38.0014 13.7594C37.4004 14.3605 37.1424 15.1736 37.1424 16.1H38.5017ZM38.9626 14.7206C39.2415 14.4417 39.6684 14.2597 40.342 14.2597V12.9003C39.4156 12.9003 38.6025 13.1583 38.0014 13.7594L38.9626 14.7206ZM40.342 14.2597C41.0156 14.2597 41.4425 14.4417 41.7214 14.7206L42.6826 13.7594C42.0815 13.1583 41.2684 12.9003 40.342 12.9003V14.2597ZM41.7214 14.7206C42.0004 14.9995 42.1824 15.4264 42.1824 16.1H43.5417C43.5417 15.1736 43.2837 14.3605 42.6826 13.7594L41.7214 14.7206ZM42.1824 16.1V41.48H43.5417V16.1H42.1824ZM42.1824 41.48C42.1824 42.1536 42.0004 42.5805 41.7214 42.8594L42.6826 43.8206C43.2837 43.2195 43.5417 42.4064 43.5417 41.48H42.1824ZM41.7214 42.8594C41.4425 43.1383 41.0156 43.3203 40.342 43.3203V44.6797C41.2684 44.6797 42.0815 44.4217 42.6826 43.8206L41.7214 42.8594ZM39.502 7.98033C38.7145 7.98033 38.1849 7.76172 37.8226 7.3994L36.8614 8.36059C37.5391 9.03827 38.4496 9.33966 39.502 9.33966V7.98033ZM37.8414 7.41899C37.5038 7.05322 37.3017 6.53263 37.3017 5.78H35.9424C35.9424 6.78737 36.2203 7.66678 36.8426 8.341L37.8414 7.41899ZM37.3017 5.78V3.98H35.9424V5.78H37.3017ZM37.3017 3.98C37.3017 3.16985 37.5118 2.70635 37.8013 2.44102L36.8828 1.43898C36.2122 2.05364 35.9424 2.95014 35.9424 3.98H37.3017ZM37.803 2.43942C38.1634 2.10673 38.7001 1.89966 39.502 1.89966V0.540332C38.464 0.540332 37.5606 0.81326 36.881 1.44058L37.803 2.43942ZM39.502 1.89966H41.242V0.540332H39.502V1.89966ZM41.242 1.89966C42.0334 1.89966 42.503 2.10093 42.7812 2.38528C43.0621 2.6724 43.2624 3.16106 43.2624 3.98H44.6217C44.6217 2.95894 44.372 2.06759 43.7529 1.43471C43.1311 0.799065 42.2506 0.540332 41.242 0.540332V1.89966ZM43.2624 3.98V5.78H44.6217V3.98H43.2624ZM43.2624 5.78C43.2624 6.58193 43.0553 7.11859 42.7226 7.479L43.7215 8.401C44.3488 7.72141 44.6217 6.81807 44.6217 5.78H43.2624ZM42.721 7.48073C42.4504 7.77599 42.0013 7.98033 41.242 7.98033V9.33966C42.2427 9.33966 43.1137 9.06401 43.723 8.39927L42.721 7.48073ZM41.242 7.98033H39.502V9.33966H41.242V7.98033ZM81.6816 43.34L82.1622 43.8206L81.6816 43.34ZM77.9616 43.34L78.4422 42.8594L77.9616 43.34ZM77.3016 41.06H77.9812V39.4191L76.821 40.5794L77.3016 41.06ZM73.5216 43.28L73.3169 42.6319L73.3119 42.6335L73.5216 43.28ZM56.7816 41.12L56.301 41.6006L56.7816 41.12ZM56.7816 16.46L56.301 15.9794L56.7816 16.46ZM77.3016 13.58V14.2597H77.9812V13.58H77.3016ZM77.9616 2.42L78.4422 2.90059V2.90059L77.9616 2.42ZM74.6616 37.94L74.9115 38.5721L74.9189 38.5691L74.6616 37.94ZM77.3016 18.62H77.9812V17.9403H77.3016V18.62ZM61.5816 19.22L61.3202 18.5926L61.5816 19.22ZM59.5416 21.26L60.1689 21.5214L59.5416 21.26ZM61.5816 38.36L61.3202 38.9874L61.5816 38.36ZM79.8216 2.43966C80.4952 2.43966 80.9221 2.62167 81.201 2.90059L82.1622 1.9394C81.5611 1.33832 80.7479 1.08033 79.8216 1.08033V2.43966ZM81.201 2.90059C81.4799 3.17951 81.6619 3.60638 81.6619 4.28H83.0212C83.0212 3.35361 82.7632 2.54048 82.1622 1.9394L81.201 2.90059ZM81.6619 4.28V41.48H83.0212V4.28H81.6619ZM81.6619 41.48C81.6619 42.1536 81.4799 42.5805 81.201 42.8594L82.1622 43.8206C82.7632 43.2195 83.0212 42.4064 83.0212 41.48H81.6619ZM81.201 42.8594C80.9221 43.1383 80.4952 43.3203 79.8216 43.3203V44.6797C80.7479 44.6797 81.5611 44.4217 82.1622 43.8206L81.201 42.8594ZM79.8216 43.3203C79.1479 43.3203 78.7211 43.1383 78.4422 42.8594L77.481 43.8206C78.082 44.4217 78.8952 44.6797 79.8216 44.6797V43.3203ZM78.4422 42.8594C78.1632 42.5805 77.9812 42.1536 77.9812 41.48H76.6219C76.6219 42.4064 76.8799 43.2195 77.481 43.8206L78.4422 42.8594ZM77.9812 41.48V41.06H76.6219V41.48H77.9812ZM76.821 40.5794C75.9075 41.4929 74.7462 42.1805 73.3169 42.6319L73.7262 43.9281C75.3369 43.4195 76.6956 42.6271 77.7822 41.5406L76.821 40.5794ZM73.3119 42.6335C71.9222 43.0842 70.1389 43.3203 67.9416 43.3203V44.6797C70.2243 44.6797 72.1609 44.4358 73.7312 43.9265L73.3119 42.6335ZM67.9416 43.3203H65.6616V44.6797H67.9416V43.3203ZM65.6616 43.3203C61.7569 43.3203 59.0051 42.3824 57.2622 40.6394L56.301 41.6006C58.398 43.6976 61.5662 44.6797 65.6616 44.6797V43.3203ZM57.2622 40.6394C55.5192 38.8964 54.5812 36.1446 54.5812 32.24H53.2219C53.2219 36.3354 54.2039 39.5036 56.301 41.6006L57.2622 40.6394ZM54.5812 32.24V25.34H53.2219V32.24H54.5812ZM54.5812 25.34C54.5812 21.4354 55.5192 18.6836 57.2622 16.9406L56.301 15.9794C54.2039 18.0764 53.2219 21.2446 53.2219 25.34H54.5812ZM57.2622 16.9406C59.0051 15.1976 61.7569 14.2597 65.6616 14.2597V12.9003C61.5662 12.9003 58.398 13.8824 56.301 15.9794L57.2622 16.9406ZM65.6616 14.2597H77.3016V12.9003H65.6616V14.2597ZM77.9812 13.58V4.28H76.6219V13.58H77.9812ZM77.9812 4.28C77.9812 3.60638 78.1632 3.17951 78.4422 2.90059L77.481 1.9394C76.8799 2.54048 76.6219 3.35361 76.6219 4.28H77.9812ZM78.4422 2.90059C78.7211 2.62167 79.1479 2.43966 79.8216 2.43966V1.08033C78.8952 1.08033 78.082 1.33832 77.481 1.93941L78.4422 2.90059ZM67.9416 39.6397C70.749 39.6397 73.0828 39.295 74.9114 38.5721L74.4117 37.3079C72.8003 37.945 70.6541 38.2803 67.9416 38.2803V39.6397ZM74.9189 38.5691C76.8132 37.7941 77.9812 36.5669 77.9812 34.82H76.6219C76.6219 35.7931 76.03 36.6459 74.4042 37.3109L74.9189 38.5691ZM77.9812 34.82V18.62H76.6219V34.82H77.9812ZM77.3016 17.9403H65.6616V19.2997H77.3016V17.9403ZM65.6616 17.9403C63.8654 17.9403 62.4012 18.1422 61.3202 18.5926L61.843 19.8474C62.682 19.4978 63.9377 19.2997 65.6616 19.2997V17.9403ZM61.3202 18.5926C60.1947 19.0616 59.3831 19.8731 58.9142 20.9986L60.1689 21.5214C60.5 20.7269 61.0485 20.1784 61.843 19.8474L61.3202 18.5926ZM58.9142 20.9986C58.4638 22.0796 58.2619 23.5438 58.2619 25.34H59.6212C59.6212 23.6162 59.8194 22.3604 60.1689 21.5214L58.9142 20.9986ZM58.2619 25.34V32.24H59.6212V25.34H58.2619ZM58.2619 32.24C58.2619 34.0362 58.4638 35.5004 58.9142 36.5814L60.1689 36.0586C59.8194 35.2196 59.6212 33.9638 59.6212 32.24H58.2619ZM58.9142 36.5814C59.3831 37.7069 60.1947 38.5184 61.3202 38.9874L61.843 37.7326C61.0485 37.4016 60.5 36.8531 60.1689 36.0586L58.9142 36.5814ZM61.3202 38.9874C62.4012 39.4378 63.8654 39.6397 65.6616 39.6397V38.2803C63.9377 38.2803 62.682 38.0822 61.843 37.7326L61.3202 38.9874ZM65.6616 39.6397H67.9416V38.2803H65.6616V39.6397ZM97.8478 30.86V30.1803H97.1682V30.86H97.8478ZM98.4478 36.38L97.8204 36.6414L97.8245 36.651L98.4478 36.38ZM100.488 38.36L100.226 38.9874L100.488 38.36ZM113.988 38.42L114.226 39.0564L114.233 39.0538L114.24 39.0511L113.988 38.42ZM115.968 36.38L116.613 36.5949L116.616 36.5852L116.619 36.5753L115.968 36.38ZM116.928 34.64L117.382 35.1452L117.396 35.1332L117.408 35.1206L116.928 34.64ZM120.408 34.58L119.953 35.0852L119.979 35.1089L120.008 35.1297L120.408 34.58ZM121.008 36.62L120.363 36.4051L120.347 36.4518L120.339 36.5003L121.008 36.62ZM95.6878 41.12L95.2072 41.6006L95.6878 41.12ZM95.6878 16.4L96.1684 16.8806L95.6878 16.4ZM104.568 13.58L104.561 14.2597H104.568V13.58ZM118.368 16.46L118.848 15.9794L118.368 16.46ZM120.588 30.2L121.068 30.6806V30.6806L120.588 30.2ZM97.8478 25.82H97.1682V26.4997H97.8478V25.82ZM116.208 25.82V26.4997H116.887V25.82H116.208ZM115.608 21.26L114.98 21.5214V21.5214L115.608 21.26ZM113.568 19.22L113.829 18.5926L113.568 19.22ZM104.568 18.62L104.552 19.2995L104.56 19.2997H104.568V18.62ZM100.488 19.16L100.226 18.5326L100.488 19.16ZM98.4478 21.2L97.8204 20.9386L98.4478 21.2ZM97.1682 30.86V32.3H98.5275V30.86H97.1682ZM97.1682 32.3C97.1682 34.0962 97.37 35.5604 97.8204 36.6414L99.0752 36.1186C98.7256 35.2796 98.5275 34.0238 98.5275 32.3H97.1682ZM97.8245 36.651C98.2974 37.7385 99.1109 38.5226 100.226 38.9874L100.749 37.7326C99.9448 37.3974 99.3983 36.8615 99.0711 36.109L97.8245 36.651ZM100.226 38.9874C101.307 39.4378 102.772 39.6397 104.568 39.6397V38.2803C102.844 38.2803 101.588 38.0822 100.749 37.7326L100.226 38.9874ZM104.568 39.6397H109.488V38.2803H104.568V39.6397ZM109.488 39.6397C111.545 39.6397 113.147 39.4612 114.226 39.0564L113.749 37.7836C112.909 38.0988 111.511 38.2803 109.488 38.2803V39.6397ZM114.24 39.0511C115.412 38.5822 116.225 37.7581 116.613 36.5949L115.323 36.1651C115.071 36.9219 114.563 37.4578 113.735 37.7889L114.24 39.0511ZM116.619 36.5753C116.841 35.8342 117.113 35.3879 117.382 35.1452L116.473 34.1348C115.943 34.6121 115.574 35.3258 115.317 36.1847L116.619 36.5753ZM117.408 35.1206C117.642 34.887 118.024 34.7197 118.668 34.7197V33.3603C117.791 33.3603 117.014 33.593 116.447 34.1594L117.408 35.1206ZM118.668 34.7197C119.329 34.7197 119.721 34.8764 119.953 35.0852L120.862 34.0748C120.295 33.5636 119.527 33.3603 118.668 33.3603V34.7197ZM120.008 35.1297C120.24 35.2981 120.388 35.5538 120.388 36.02H121.747C121.747 35.2062 121.456 34.5019 120.808 34.0303L120.008 35.1297ZM120.388 36.02C120.388 36.1455 120.384 36.2416 120.377 36.3124C120.369 36.3879 120.361 36.4123 120.363 36.4051L121.653 36.8349C121.73 36.6024 121.747 36.3063 121.747 36.02H120.388ZM120.339 36.5003C119.929 38.7938 118.845 40.4653 117.101 41.5827C115.332 42.7161 112.818 43.3203 109.488 43.3203V44.6797C112.958 44.6797 115.764 44.0539 117.834 42.7273C119.93 41.3847 121.207 39.3662 121.677 36.7397L120.339 36.5003ZM109.488 43.3203H104.568V44.6797H109.488V43.3203ZM104.568 43.3203C100.663 43.3203 97.9114 42.3824 96.1684 40.6394L95.2072 41.6006C97.3042 43.6976 100.472 44.6797 104.568 44.6797V43.3203ZM96.1684 40.6394C94.4243 38.8953 93.4875 36.1623 93.4875 32.3H92.1282C92.1282 36.3577 93.1113 39.5047 95.2072 41.6006L96.1684 40.6394ZM93.4875 32.3V25.34H92.1282V32.3H93.4875ZM93.4875 25.34C93.4875 21.3931 94.4265 18.6225 96.1684 16.8806L95.2072 15.9194C93.1091 18.0175 92.1282 21.2069 92.1282 25.34H93.4875ZM96.1684 16.8806C97.9089 15.1401 100.657 14.2206 104.561 14.2596L104.575 12.9004C100.478 12.8594 97.3067 13.8199 95.2072 15.9194L96.1684 16.8806ZM104.568 14.2597H109.488V12.9003H104.568V14.2597ZM109.488 14.2597C113.392 14.2597 116.144 15.1976 117.887 16.9406L118.848 15.9794C116.751 13.8824 113.583 12.9003 109.488 12.9003V14.2597ZM117.887 16.9406C119.63 18.6836 120.568 21.4354 120.568 25.34H121.927C121.927 21.2446 120.945 18.0764 118.848 15.9794L117.887 16.9406ZM120.568 25.34V28.34H121.927V25.34H120.568ZM120.568 28.34C120.568 29.0136 120.386 29.4405 120.107 29.7194L121.068 30.6806C121.669 30.0795 121.927 29.2664 121.927 28.34H120.568ZM120.107 29.7194C119.828 29.9983 119.401 30.1803 118.728 30.1803V31.5397C119.654 31.5397 120.467 31.2817 121.068 30.6806L120.107 29.7194ZM118.728 30.1803H97.8478V31.5397H118.728V30.1803ZM97.8478 26.4997H116.208V25.1403H97.8478V26.4997ZM116.887 25.82V25.34H115.528V25.82H116.887ZM116.887 25.34C116.887 23.5438 116.686 22.0796 116.235 20.9986L114.98 21.5214C115.33 22.3604 115.528 23.6162 115.528 25.34H116.887ZM116.235 20.9986C115.766 19.8731 114.955 19.0616 113.829 18.5926L113.306 19.8474C114.101 20.1784 114.649 20.7269 114.98 21.5214L116.235 20.9986ZM113.829 18.5926C112.748 18.1422 111.284 17.9403 109.488 17.9403V19.2997C111.212 19.2997 112.467 19.4978 113.306 19.8474L113.829 18.5926ZM109.488 17.9403H104.568V19.2997H109.488V17.9403ZM104.583 17.9405C102.785 17.8996 101.315 18.0792 100.226 18.5326L100.749 19.7874C101.581 19.4408 102.83 19.2604 104.552 19.2995L104.583 17.9405ZM100.226 18.5326C99.1009 19.0016 98.2894 19.8131 97.8204 20.9386L99.0752 21.4614C99.4062 20.6669 99.9547 20.1184 100.749 19.7874L100.226 18.5326ZM97.8204 20.9386C97.3695 22.0209 97.1682 23.5063 97.1682 25.34H98.5275C98.5275 23.5737 98.7262 22.2991 99.0752 21.4614L97.8204 20.9386ZM97.1682 25.34V25.82H98.5275V25.34H97.1682ZM133.715 41.12L133.235 41.6006L133.715 41.12ZM133.715 16.46L133.235 15.9794L133.715 16.46ZM156.395 16.46L156.876 15.9794L156.395 16.46ZM156.395 41.12L156.876 41.6006L156.395 41.12ZM151.595 38.36L151.857 38.9874L151.595 38.36ZM153.635 36.32L153.008 36.0586L153.635 36.32ZM153.635 21.26L153.008 21.5214V21.5214L153.635 21.26ZM151.595 19.22L151.857 18.5926L151.595 19.22ZM138.455 19.22L138.194 18.5925L138.184 18.5967L138.455 19.22ZM136.475 21.26L137.099 21.531L137.103 21.5214L136.475 21.26ZM136.475 36.38L135.848 36.6414L135.852 36.651L136.475 36.38ZM138.515 38.36L138.254 38.9874L138.515 38.36ZM142.595 43.3203C138.691 43.3203 135.939 42.3824 134.196 40.6394L133.235 41.6006C135.332 43.6976 138.5 44.6797 142.595 44.6797V43.3203ZM134.196 40.6394C132.452 38.8953 131.515 36.1623 131.515 32.3H130.155C130.155 36.3577 131.139 39.5047 133.235 41.6006L134.196 40.6394ZM131.515 32.3V25.34H130.155V32.3H131.515ZM131.515 25.34C131.515 21.4354 132.453 18.6836 134.196 16.9406L133.235 15.9794C131.138 18.0764 130.155 21.2446 130.155 25.34H131.515ZM134.196 16.9406C135.939 15.1976 138.691 14.2597 142.595 14.2597V12.9003C138.5 12.9003 135.332 13.8824 133.235 15.9794L134.196 16.9406ZM142.595 14.2597H147.515V12.9003H142.595V14.2597ZM147.515 14.2597C151.42 14.2597 154.172 15.1976 155.915 16.9406L156.876 15.9794C154.779 13.8824 151.611 12.9003 147.515 12.9003V14.2597ZM155.915 16.9406C157.658 18.6836 158.595 21.4354 158.595 25.34H159.955C159.955 21.2446 158.973 18.0764 156.876 15.9794L155.915 16.9406ZM158.595 25.34V32.24H159.955V25.34H158.595ZM158.595 32.24C158.595 36.1446 157.658 38.8964 155.915 40.6394L156.876 41.6006C158.973 39.5036 159.955 36.3354 159.955 32.24H158.595ZM155.915 40.6394C154.172 42.3824 151.42 43.3203 147.515 43.3203V44.6797C151.611 44.6797 154.779 43.6976 156.876 41.6006L155.915 40.6394ZM147.515 43.3203H142.595V44.6797H147.515V43.3203ZM147.515 39.6397C149.311 39.6397 150.776 39.4378 151.857 38.9874L151.334 37.7326C150.495 38.0822 149.239 38.2803 147.515 38.2803V39.6397ZM151.857 38.9874C152.982 38.5184 153.794 37.7069 154.263 36.5814L153.008 36.0586C152.677 36.8531 152.128 37.4016 151.334 37.7326L151.857 38.9874ZM154.263 36.5814C154.713 35.5004 154.915 34.0362 154.915 32.24H153.555C153.555 33.9638 153.357 35.2196 153.008 36.0586L154.263 36.5814ZM154.915 32.24V25.34H153.555V32.24H154.915ZM154.915 25.34C154.915 23.5438 154.713 22.0796 154.263 20.9986L153.008 21.5214C153.357 22.3604 153.555 23.6162 153.555 25.34H154.915ZM154.263 20.9986C153.794 19.8731 152.982 19.0616 151.857 18.5926L151.334 19.8474C152.128 20.1784 152.677 20.7269 153.008 21.5214L154.263 20.9986ZM151.857 18.5926C150.776 18.1422 149.311 17.9403 147.515 17.9403V19.2997C149.239 19.2997 150.495 19.4978 151.334 19.8474L151.857 18.5926ZM147.515 17.9403H142.595V19.2997H147.515V17.9403ZM142.595 17.9403C140.761 17.9403 139.276 18.1416 138.194 18.5926L138.717 19.8474C139.554 19.4984 140.829 19.2997 142.595 19.2997V17.9403ZM138.184 18.5967C137.097 19.0695 136.313 19.883 135.848 20.9986L137.103 21.5214C137.438 20.717 137.974 20.1705 138.726 19.8433L138.184 18.5967ZM135.852 20.989C135.396 22.0375 135.195 23.5091 135.195 25.34H136.555C136.555 23.5709 136.754 22.3225 137.098 21.531L135.852 20.989ZM135.195 25.34V32.3H136.555V25.34H135.195ZM135.195 32.3C135.195 34.0962 135.397 35.5604 135.848 36.6414L137.103 36.1186C136.753 35.2796 136.555 34.0238 136.555 32.3H135.195ZM135.852 36.651C136.325 37.7385 137.138 38.5226 138.254 38.9874L138.777 37.7326C137.972 37.3974 137.426 36.8615 137.098 36.109L135.852 36.651ZM138.254 38.9874C139.335 39.4378 140.799 39.6397 142.595 39.6397V38.2803C140.871 38.2803 139.616 38.0822 138.777 37.7326L138.254 38.9874ZM142.595 39.6397H147.515V38.2803H142.595V39.6397Z" fill="black"/>
</svg>
